<?xml version="1.0" encoding="UTF-8" standalone="no"?>
<svg
  xmlns:dc="http://purl.org/dc/elements/1.1/"
  xmlns:cc="http://creativecommons.org/ns#"
  xmlns:rdf="http://www.w3.org/1999/02/22-rdf-syntax-ns#"
  xmlns:svg="http://www.w3.org/2000/svg"
  xmlns="http://www.w3.org/2000/svg"
  viewBox="0 0 681.65173 479.94913"
  height="479.94913"
  width="681.65173"
  xml:space="preserve"
  id="svg2"
  version="1.1"><metadata
     id="metadata8"><rdf:RDF><cc:Work
         rdf:about=""><dc:format>image/svg+xml</dc:format><dc:type
  rdf:resource="http://purl.org/dc/dcmitype/StillImage"/></cc:Work></rdf:RDF></metadata>
  <defs
    id="defs6"><clipPath
       id="clipPath22"
       clipPathUnits="userSpaceOnUse"><path
         id="path20"
         d="m 1736.54,1096.82 c 0,0 -45.78,364.59 -304.59,362.69 0,0 -132.36,-12.06 -217.91,-93.08 0,0 -94.84,-69.51 -173.52,-14.43 -102.133,71.54 -275.395,87.36 -358.989,-31.28 -92.644,-131.48 -271.668,141.38 -392.91,-230.27 z" /></clipPath>
    <clipPath
      id="clipPath50"
      clipPathUnits="userSpaceOnUse"><path
         id="path48"
         d="m 1610.3,1712.42 c 0,0 -196.53,714.53 -1034.062,1008.41 C 404.461,2781.08 65.7227,2702.96 367.684,2264.97 560.555,1985.18 1243.01,1620.55 1610.3,1712.42 Z" /></clipPath>
    <clipPath
      id="clipPath62"
      clipPathUnits="userSpaceOnUse"><path
         id="path60"
         d="m 2317.86,1580.42 c -31.32,89.7 -96.2,161.95 -178.41,199.32 0.24,12.53 0.03,25.15 -0.8,37.9 -15.14,231.45 -203.35,405.99 -420.38,389.85 -123.99,-9.23 -230.49,-78.73 -296.25,-179.74 -52.68,133.99 -180.88,223.71 -324.34,213.03 -180.172,-13.39 -316.059,-180.02 -303.492,-372.16 0.234,-3.67 0.605,-7.28 0.949,-10.91 -37.18,32.5 -84.727,52.01 -136.543,52.01 -119.074,0 -215.586,-102.93 -215.586,-229.89 0,-31.43 5.926,-61.37 16.629,-88.66 C 183.809,1650.15 -34.4141,1430.25 4.51172,1239.98 H 2778.76 c 0,0 -37.87,384.8 -460.9,340.44" /></clipPath>
    <clipPath
      id="clipPath74"
      clipPathUnits="userSpaceOnUse"><path
         id="path72"
         d="m 3439.5,2110.11 c -392.4,-107.96 -253.02,-665.48 286.7,-744.04 319.96,-46.65 719.89,269.69 415.88,560.04 -304.08,290.36 350.61,205.62 114.61,516.88 -236.03,311.2 -130.53,204.48 -55.86,444.62 25.99,83.61 3.82,203.35 -125.01,262.19 -137.8,62.93 -272.57,-58.25 -285.65,-154.64 -34.25,-250.72 104.47,-207.96 -236.07,-368.17 -340.56,-160.26 277.73,-408.91 -114.6,-516.88 z" /></clipPath>
    <clipPath
      id="clipPath90"
      clipPathUnits="userSpaceOnUse"><path
         id="path88"
         d="m 3863.35,984.371 c 0,0 566.36,-152.562 1092.02,340.689 107.8,101.18 185.24,382.55 -232.15,342.72 -266.61,-25.43 -780.84,-375.34 -859.87,-683.409 z" /></clipPath>
    <clipPath
      id="clipPath102"
      clipPathUnits="userSpaceOnUse"><path
         id="path100"
         d="M 0,0 H 5112 V 3600 H 0 Z" /></clipPath>
    <clipPath
      id="clipPath108"
      clipPathUnits="userSpaceOnUse"><path
         id="path106"
         d="m 3816.34,881.031 c 0,0 40.98,361.429 272.64,359.559 0,0 118.48,-11.96 195.06,-92.29 0,0 84.89,-68.91 155.32,-14.29 91.42,70.9 246.51,86.59 321.33,-31.02 82.93,-130.342 243.18,140.17 351.7,-228.279 z" /></clipPath>
    <clipPath
      id="clipPath134"
      clipPathUnits="userSpaceOnUse"><path
         id="path132"
         d="m 2640.66,2446.4 1163.71,-60.09 -63.89,-1237.34 -1163.71,60.08 z" /></clipPath>
    <clipPath
      id="clipPath150"
      clipPathUnits="userSpaceOnUse"><path
         id="path148"
         d="M 1839.71,2739.42 2915.48,2291.58 2439.31,1147.75 1363.53,1595.58 Z" /></clipPath>
    <clipPath
      id="clipPath164"
      clipPathUnits="userSpaceOnUse"><path
         id="path162"
         d="m 3244.26,3108.27 c -22.1,66.65 -67.87,120.34 -125.88,148.11 0.16,9.31 0.02,18.69 -0.56,28.16 -10.68,172 -143.48,301.7 -296.6,289.7 -87.47,-6.85 -162.61,-58.5 -209.01,-133.57 -37.17,99.57 -127.61,166.24 -228.83,158.31 -127.12,-9.95 -222.99,-133.77 -214.12,-276.56 0.16,-2.72 0.43,-5.4 0.67,-8.11 -26.23,24.16 -59.78,38.66 -96.34,38.66 -84.01,0 -152.11,-76.49 -152.11,-170.84 0,-23.35 4.19,-45.6 11.74,-65.88 -194.6,43.84 -348.57,-119.58 -321.1,-260.96 h 1957.3 c 0,0 -26.71,285.93 -325.16,252.98" /></clipPath></defs>
  <g
    transform="matrix(1.3333333,0,0,-1.3333333,-2.4857508e-4,479.94914)"
    id="g10"><g
       transform="scale(0.1)"
       id="g12"><path
         id="path14"
         style="fill:#3a58b0;fill-opacity:1;fill-rule:evenodd;stroke:none"
         d="m 1736.54,1096.82 c 0,0 -45.78,364.59 -304.59,362.69 0,0 -132.36,-12.06 -217.91,-93.08 0,0 -94.84,-69.51 -173.52,-14.43 -102.133,71.54 -275.395,87.36 -358.989,-31.28 -92.644,-131.48 -271.668,141.38 -392.91,-230.27 l 1447.919,6.37" /><g
    id="g16"><g
           clip-path="url(#clipPath22)"
           id="g18"><path
             id="path24"
             style="fill:#3748a4;fill-opacity:1;fill-rule:evenodd;stroke:none"
             d="m 629.785,1177.21 1.551,-0.53 1.418,-0.35 2.402,-3.47 -0.136,-1.42 0.039,-1.59 0.066,-0.71 -0.418,-0.32 -0.684,-0.55 -1.367,-1.11 -1.347,-1.15 -1.329,-1.16 -1.328,-1.2 -1.3,-1.21 -1.289,-1.24 -1.27,-1.27 -1.27,-1.27 -0.839,-0.88 -0.418,-0.42 -1.27,-1.3 -1.262,-1.32 -1.25,-1.32 -1.238,-1.35 -1.242,-1.36 -1.25,-1.37 -1.238,-1.38 -2.481,-2.79 -4.961,-5.64 -0.031,-0.04 -2.5,-2.76 -1.289,-1.4 -1.277,-1.39 -1.309,-1.4 -1.301,-1.38 -1.336,-1.38 -1.32,-1.35 -6.836,-6.91 -7.07,-7.17 -3.633,-3.67 -3.692,-3.72 -3.75,-3.76 -3.125,-3.1 -0.691,-0.67 -3.879,-3.78 -3.926,-3.79 -3.984,-3.78 -2.02,-1.92 -2.011,-1.88 -2.031,-1.89 -2.051,-1.88 -2.063,-1.88 -2.058,-1.88 -2.082,-1.86 -2.09,-1.86 -2.098,-1.85 -2.109,-1.84 -2.121,-1.83 -2.129,-1.81 -2.137,-1.8 -0.293,-0.26 -1.867,-1.51 -2.188,-1.76 -2.168,-1.74 -2.187,-1.71 -2.207,-1.71 -2.195,-1.67 -2.219,-1.66 -2.215,-1.64 -2.238,-1.63 -0.84,-0.6 -1.406,-0.98 -2.266,-1.54 -2.266,-1.5 -2.285,-1.5 -2.273,-1.45 -2.285,-1.45 -2.297,-1.39 -2.032,-1.22 -0.273,-0.13 -2.441,-1.14 -2.411,-1.11 -2.402,-1.09 -2.422,-1.04 -2.402,-1.02 -2.395,-0.98 -1.211,-0.48 -0.164,-0.06 -1.047,-0.39 -1.21,-0.45 -1.192,-0.44 -1.211,-0.42 -1.191,-0.41 -1.192,-0.41 -1.211,-0.4 -1.199,-0.39 -1.191,-0.37 -1.184,-0.37 -1.172,-0.35 -4.031,1.61 1.766,3.96 1.054,0.55 1.055,0.56 1.055,0.58 1.054,0.58 1.036,0.61 1.047,0.62 1.035,0.62 1.043,0.63 1.035,0.66 1.027,0.65 0.879,0.57 0.145,0.09 1.035,0.67 2.062,1.35 2.059,1.39 2.051,1.45 2.031,1.47 2.023,1.51 2.012,1.55 0.234,0.2 1.875,1.21 2.129,1.41 2.117,1.46 2.129,1.47 2.11,1.5 2.121,1.54 2.109,1.55 1.309,1 0.801,0.58 2.109,1.58 2.129,1.61 2.109,1.62 2.11,1.66 2.089,1.66 2.098,1.69 2.09,1.73 2.082,1.71 1.797,1.51 0.281,0.23 2.09,1.75 2.082,1.76 2.059,1.77 2.062,1.78 2.07,1.8 2.039,1.82 2.051,1.8 2.032,1.82 2.011,1.85 2.024,1.83 2,1.86 2.004,1.84 1.961,1.85 3.957,3.72 3.894,3.73 3.848,3.72 0.695,0.66 3.133,3.03 3.789,3.66 3.723,3.63 3.671,3.58 7.196,7.06 6.953,6.79 1.281,1.28 1.277,1.28 1.27,1.29 1.27,1.3 1.261,1.33 1.27,1.34 2.5,2.67 0.027,0.05 5.149,5.45 2.605,2.75 1.32,1.38 1.317,1.36 1.34,1.37 1.347,1.36 1.367,1.35 1.356,1.35 1.398,1.33 0.469,0.45 0.957,0.87 1.445,1.29 1.454,1.27 1.476,1.26 1.504,1.24 1.523,1.21 1.551,1.19 1.563,1.16 1.582,1.15 0.82,0.56 0.488,0.32 0.676,-0.24" /><path
    id="path26"
    style="fill:#3748a4;fill-opacity:1;fill-rule:evenodd;stroke:none"
    d="m 1234.49,1431.35 8.83,-7.02 4.75,-3.72 4.11,-3.26 12.42,-9.78 5.11,-4.43 17.02,-14.77 17.05,-14.77 8.52,-7.39 8.52,-7.4 8.53,-7.39 8.53,-7.42 2.79,-2.45 5.7,-5 8.45,-7.5 8.45,-7.5 8.46,-7.51 8.42,-7.54 5.45,-4.89 2.93,-2.68 8.33,-7.65 8.32,-7.67 8.28,-7.7 4.15,-3.86 4.12,-3.86 0.18,-0.17 3.85,-3.8 4.01,-3.97 4.03,-3.99 4.01,-3.98 4.01,-4.01 0.32,-0.34 3.6,-3.74 3.91,-4.07 3.9,-4.1 3.9,-4.09 3.89,-4.12 2.62,-2.77 1.24,-1.35 3.81,-4.19 3.82,-4.17 3.8,-4.2 3.79,-4.18 2.74,-3.05 1.03,-1.17 3.69,-4.3 3.69,-4.3 3.67,-4.29 0.51,-0.61 -0.18,-6.88 -4,-3.82 -6.87,0.12 -0.58,0.53 -4.12,3.83 -4.13,3.8 -4.14,3.79 -1.14,1.05 -2.97,2.8 -4.08,3.83 -4.1,3.85 -4.1,3.84 -4.13,3.81 -1.33,1.23 -2.75,2.62 -4.09,3.84 -4.09,3.85 -4.1,3.85 -4.1,3.81 -3.78,3.5 -0.34,0.33 -4.05,3.89 -4.07,3.88 -4.06,3.88 -4.08,3.86 -3.89,3.69 -0.18,0.17 -3.99,3.95 -4,3.96 -8.02,7.88 -8.05,7.86 -8.06,7.83 -2.86,2.75 -5.2,5.14 -8.04,7.86 -8.07,7.87 -8.1,7.84 -8.09,7.83 -5.44,5.25 -2.67,2.58 -8.08,7.85 -8.1,7.86 -8.11,7.83 -8.13,7.81 -16.25,15.62 -16.29,15.58 -4.88,4.68 -10.86,11.47 -3.62,3.8 -4.15,4.41 -7.77,8.17 -0.81,5.78 5.83,-0.29"/><path
    id="path28"
    style="fill:#3748a4;fill-opacity:1;fill-rule:evenodd;stroke:none"
    d="m 1479.44,1183.56 -0.44,-3.88 -0.1,-0.25 -1.69,-4.05 -1.03,-2.45 -1,-2.78 -2.86,-2.6 -4.71,-4.29 -4.43,-4.07 -0.26,-0.22 -4.76,-4.15 -4.74,-4.18 -4.74,-4.17 -2.37,-2.12 -2.36,-2.03 -4.74,-4.11 -4.72,-4.14 -4.7,-4.12 -4.69,-4.14 -4.66,-4.16 -4.65,-4.15 -2.84,-2.57 -1.85,-1.58 -4.71,-4.09 -4.7,-4.09 -4.69,-4.11 -4.68,-4.14 -0.41,-0.37 -4.33,-3.68 -4.75,-4.08 -2.13,-1.82 -2.68,-2.2 -4.86,-3.99 -2.18,-1.81 -2.78,-2.06 -5.04,-3.81 -3.93,-3.03 -1.11,-0.81 -5.1,-3.8 -5.07,-3.86 -3.14,-2.42 -1.93,-1.47 -5.06,-3.94 -5.03,-4 -5.01,-4.06 -5.09,-0.35 0.47,5.09 4.2,4.9 4.18,4.92 4.15,4.93 1.58,1.87 2.56,3.03 4.16,4.9 4.12,4.9 0.89,1.06 3.3,3.77 4.21,4.78 2.3,2.63 2,2.06 4.43,4.53 2.46,2.5 2.04,1.96 4.56,4.37 4.18,3.99 0.4,0.37 4.67,4.22 4.69,4.21 4.7,4.2 4.74,4.19 1.82,1.61 2.95,2.48 4.83,4.06 4.87,4.03 4.86,4.03 4.88,4 4.91,4 4.92,4.01 2.43,1.95 2.55,1.98 5.02,3.9 5.04,3.89 5.06,3.89 0.28,0.21 4.91,3.53 5.23,3.75 3.18,2.27 2.92,0.39 2.62,0.47 4.32,0.74 0.27,0.06 3.89,-0.43"/><path
    id="path30"
    style="fill:#3748a4;fill-opacity:1;fill-rule:evenodd;stroke:none"
    d="m 1032.79,1396.35 6.19,-6.86 6.19,-6.84 6.21,-6.84 0.32,-0.36 5.85,-6.49 9.61,-10.63 2.71,-3.08 9.36,-10.57 2.77,-3.3 11.87,-14.06 8.2,-9.72 3.63,-4.38 11.79,-14.09 5.91,-7.04 5.91,-7.03 0.88,-1.03 5.01,-6.01 5.89,-7.04 5.91,-7.02 5.93,-7.03 5.93,-7 5.95,-6.99 5.97,-6.96 5.99,-6.96 3.79,-4.4 2.18,-2.59 5.92,-7.01 5.96,-6.98 5.97,-6.97 0.45,-0.53 5.49,-6.49 5.67,-6.65 0.29,-0.34 2.91,-3.55 2.95,-3.56 0.51,-0.6 1.12,-4.11 1.69,-4.67 -0.21,-3.91 -3.9,0.21 -4.48,2.17 -3.97,1.56 -0.57,0.57 -3.2,3.34 -3.21,3.33 -0.31,0.34 -5.96,6.46 -5.75,6.31 -0.47,0.52 -6.14,6.89 -6.11,6.93 -6.08,6.94 -2.24,2.55 -3.77,4.44 -5.94,7.06 -5.92,7.06 -5.91,7.07 -5.88,7.09 -5.87,7.09 -5.85,7.1 -5.85,7.12 -4.96,6.07 -0.87,1.05 -5.79,7.17 -5.76,7.16 -11.54,14.33 -3.57,4.44 -7.9,9.97 -11.42,14.42 -2.67,3.39 -8.49,11.26 -2.5,3.27 -8.51,11.52 -5.21,7 -0.29,0.39 -5.51,7.39 -5.54,7.38 -5.55,7.37 0.15,4.68 4.64,-0.72"/><path
    id="path32"
    style="fill:#3748a4;fill-opacity:1;fill-rule:evenodd;stroke:none"
    d="m 1080.62,1171.91 2.67,-4.85 1.47,-5.27 -0.26,-0.15 -1.24,-0.81 -1.24,-0.82 -1.23,-0.84 -1.2,-0.85 -1.2,-0.89 -1.19,-0.89 -1.19,-0.93 -1.16,-0.95 -1.16,-0.97 -1.13,-0.97 -0.05,-0.03 -1.13,-0.93 -1.15,-0.98 -1.16,-0.99 -1.13,-1.01 -1.13,-1.03 -1.14,-1.06 -1.11,-1.06 -1.12,-1.09 -1.11,-1.08 -1.08,-1.11 -1.09,-1.14 -1.08,-1.13 -1.08,-1.15 -1.08,-1.17 -0.46,-0.52 -0.6,-0.65 -1.1,-1.17 -1.06,-1.17 -1.07,-1.2 -1.07,-1.19 -1.07,-1.22 -1.06,-1.21 -1.03,-1.24 -1.05,-1.23 -2.09,-2.51 -2.06,-2.54 -2.05,-2.56 -2.05,-2.58 -2.01,-2.61 -2.02,-2.61 -1.99,-2.61 -4.01,-5.25 -3.88,-5.08 -0.1,-0.13 -2.05,-2.54 -2.05,-2.55 -2.06,-2.49 -2.07,-2.48 -2.16,-2.58 -2.18,-2.56 -1.93,-2.24 -0.27,-0.32 -2.26,-2.51 -2.27,-2.51 -2.28,-2.51 -2.3,-2.48 -2.323,-2.5 -2.324,-2.47 -1.739,-1.84 -0.605,-0.63 -2.403,-2.4 -2.402,-2.42 -2.422,-2.38 -2.433,-2.4 -2.442,-2.37 -2.461,-2.35 -2.468,-2.37 -2.461,-2.33 -2.481,-2.31 -2.5,-2.33 -2.5,-2.29 -0.801,-0.74 -1.816,-1.45 -2.656,-2.13 -2.649,-2.13 -2.656,-2.11 -2.645,-2.09 -2.656,-2.09 -1.113,-0.87 -1.555,-1.2 -2.683,-2.04 -2.668,-2.03 -2.684,-2.02 -2.648,-2.01 -3.047,-0.02 0.363,3.02 2.293,2.41 2.266,2.42 2.246,2.45 2.238,2.48 1.27,1.46 0.925,1.04 2.219,2.49 2.188,2.53 2.156,2.56 2.14,2.56 2.129,2.59 1.426,1.78 0.711,0.79 2.238,2.48 2.196,2.5 2.207,2.51 2.187,2.53 2.149,2.55 2.16,2.56 2.129,2.56 2.117,2.57 2.101,2.59 2.079,2.6 2.062,2.61 0.527,0.66 1.551,1.93 2.071,2.59 2.05,2.6 2.051,2.61 2.012,2.63 2.004,2.61 1.98,2.62 0.235,0.33 1.769,2.28 1.986,2.61 1.96,2.62 1.85,2.48 1.85,2.54 1.87,2.58 1.85,2.61 0.1,0.12 3.82,5.1 3.95,5.31 2.01,2.66 2.03,2.7 2.07,2.68 2.08,2.71 2.1,2.67 2.14,2.69 2.16,2.66 1.11,1.34 1.11,1.32 1.11,1.32 1.13,1.32 1.14,1.3 1.15,1.31 1.16,1.29 1.16,1.27 0.67,0.74 0.53,0.53 1.21,1.25 1.23,1.24 1.24,1.22 1.24,1.22 1.27,1.19 1.27,1.2 1.29,1.16 1.3,1.16 1.3,1.14 1.34,1.14 1.33,1.12 1.35,1.09 1.38,1.1 1.33,1.01 0.05,0.05 1.43,1.01 1.44,0.97 1.46,0.98 1.47,0.95 1.48,0.94 1.5,0.89 1.52,0.88 1.52,0.86 1.55,0.83 1.56,0.81 0.3,0.16 3.75,-4.03"/><path
    id="path34"
    style="fill:#3748a4;fill-opacity:1;fill-rule:evenodd;stroke:none"
    d="m 686.414,1428.81 4.649,-5.19 4.66,-5.19 4.675,-5.17 4.707,-5.11 4.727,-5.12 4.727,-5.09 4.785,-5.06 0.351,-0.38 4.395,-4.69 4.777,-5.05 4.793,-5.02 4.805,-5.03 4.824,-4.99 4.836,-4.98 1.738,-1.77 3.086,-3.22 4.813,-5.01 4.836,-5 4.843,-4.98 4.852,-4.96 4.863,-4.95 0.84,-0.86 3.957,-4.17 4.793,-5.02 4.797,-5.02 4.805,-5.03 4.824,-4.99 4.824,-5.01 1.934,-2.01 2.871,-3.02 4.793,-5.04 4.804,-5.02 9.641,-10.07 9.656,-10.04 1.692,-1.75 0.84,-0.86 2.527,-2.61 2.539,-2.61 2.578,-2.61 2.57,-2.6 2.606,-2.6 5.234,-5.23 5.274,-5.23 5.265,-5.26 5.293,-5.29 2.637,-2.67 2.637,-2.66 2.617,-2.7 2.625,-2.7 2.609,-2.72 2.586,-2.72 2.578,-2.77 2.141,-2.32 0.398,-0.45 2.473,-2.87 2.441,-2.88 2.411,-2.9 1.211,-1.47 1.191,-1.46 1.191,-1.48 1.184,-1.47 1.16,-1.49 1.164,-1.49 1.16,-1.5 1.153,-1.51 0.215,-0.28 0.246,-1.75 0.371,-2.11 0.41,-2.07 0.449,-2.01 0.508,-1.97 0.547,-1.89 -0.559,-3.88 -3.867,0.56 -1.668,1.04 -1.73,0.98 -1.778,0.89 -1.863,0.86 -1.926,0.77 -1.609,0.58 -0.215,0.26 -1.184,1.37 -1.179,1.35 -1.192,1.36 -1.191,1.33 -1.211,1.35 -1.211,1.34 -1.223,1.33 -1.23,1.32 -2.5,2.65 -2.508,2.64 -2.539,2.61 -0.422,0.42 -2.078,2.22 -2.512,2.66 -2.547,2.66 -2.539,2.62 -2.578,2.65 -2.59,2.62 -2.605,2.6 -2.609,2.62 -5.254,5.22 -5.293,5.2 -5.301,5.22 -5.285,5.22 -2.637,2.63 -2.637,2.63 -2.625,2.64 -2.617,2.65 -2.609,2.65 -0.84,0.88 -1.719,1.81 -9.648,10.11 -9.618,10.14 -4.785,5.07 -4.785,5.09 -2.863,3.04 -1.895,2.06 -4.734,5.13 -4.707,5.15 -4.707,5.16 -4.699,5.16 -4.676,5.16 -3.879,4.29 -0.781,0.91 -4.571,5.27 -4.55,5.29 -4.539,5.3 -4.543,5.31 -4.532,5.31 -2.898,3.43 -1.582,1.9 -4.453,5.38 -4.434,5.4 -4.433,5.39 -4.407,5.42 -4.422,5.41 -4.054,5.01 -0.34,0.42 -4.356,5.46 -4.347,5.47 -4.324,5.48 -4.329,5.49 -4.304,5.5 -4.317,5.51 -4.277,5.52 0.313,5.2 5.144,-0.65"/><path
    id="path36"
    style="fill:#3748a4;fill-opacity:1;fill-rule:evenodd;stroke:none"
    d="m 1582.86,1196.03 4.33,-0.02 4.3,-0.03 4.33,-0.03 4.32,-0.05 4.32,-0.08 4.32,-0.06 4.31,-0.09 4.31,-0.11 4.33,-0.11 4.29,-0.13 4.31,-0.13 4.32,-0.18 4.29,-0.16 4.31,-0.19 4.3,-0.2 4.29,-0.22 4.3,-0.23 4.3,-0.25 4.28,-0.26 4.29,-0.3 4.28,-0.3 4.29,-0.32 4.26,-0.32 4.28,-0.36 4.27,-0.37 4.26,-0.4 4.27,-0.42 4.26,-0.42 4.25,-0.45 4.25,-0.47 4.24,-0.5 4.25,-0.51 4.23,-0.53 4.23,-0.55 4.22,-0.58 4.22,-0.6 4.22,-0.62 4.22,-0.64 4.2,-0.67 4.21,-0.69 4.18,-0.7 4.18,-0.75 4.19,-0.76 0.49,-0.09 3.67,-0.79 4.14,-0.92 4.15,-0.94 4.14,-0.98 4.13,-1 4.1,-1 4.11,-1.06 4.11,-1.06 4.09,-1.09 4.08,-1.12 4.09,-1.14 4.06,-1.18 4.06,-1.2 4.05,-1.22 4.05,-1.26 0.62,-0.2 2.23,-5.08 -1.75,-6.12 -4.55,-3.13 -0.61,0.17 -4.01,0.98 -4.01,0.96 -4.03,0.93 -4.02,0.9 -4.03,0.87 -4.04,0.85 -4.05,0.82 -4.04,0.78 -4.06,0.77 -4.08,0.74 -4.06,0.71 -4.07,0.68 -4.1,0.65 -4.07,0.63 -3.64,0.55 -0.47,0.08 -4.07,0.69 -4.1,0.67 -4.09,0.65 -4.09,0.63 -4.12,0.61 -4.12,0.57 -4.11,0.58 -4.13,0.53 -4.14,0.52 -4.14,0.5 -4.14,0.46 -4.14,0.47 -4.16,0.44 -4.17,0.41 -4.15,0.39 -4.18,0.37 -4.18,0.37 -4.18,0.34 -4.19,0.32 -4.18,0.31 -4.21,0.27 -4.2,0.27 -4.21,0.25 -4.2,0.24 -4.21,0.21 -4.22,0.21 -4.22,0.18 -4.22,0.17 -4.23,0.15 -4.24,0.14 -4.24,0.11 -4.22,0.1 -4.25,0.1 -4.24,0.09 -4.25,0.07 -4.25,0.05 -4.26,0.04 -4.25,0.04 -4.27,0.01 h -4.25 l -4.27,-0.01 -4.26,-0.02 -4.26,-0.03 -4.29,-0.05 -4.26,-0.06 -4.28,-0.07 -4.27,-0.08 -4.28,-0.08 -4.28,-0.08 -4.26,-0.11 -8.57,-0.24 -8.57,-0.26 -8.57,-0.29 -8.55,-0.34 -6.54,-0.27 -2.04,-0.08 -8.56,-0.36 -8.56,-0.38 -8.57,-0.39 -8.55,-0.42 -8.57,-0.43 -8.54,-0.44 -17.09,-0.92 -17.06,-0.9 -17.01,-0.94 -16.98,-0.9 -8.45,-0.43 -8.45,-0.42 -8.44,-0.42 -8.42,-0.39 -7.66,-0.34 -0.75,-0.03 -8.37,-0.32 -8.37,-0.3 -8.35,-0.28 -8.31,-0.24 -8.32,-0.21 -8.27,-0.18 -4.14,-0.08 -4.12,-0.06 -12.36,-0.18 -12.68,-0.15 -12.97,-0.14 -13.25,-0.13 -13.54,-0.1 -13.79,-0.09 -14.06,-0.08 -4.55,-0.02 -9.76,-0.01 h -14.56 l -14.77,0.01 -15.01,0.03 -15.21,0.04 -31.03,0.09 -31.75,0.12 -32.43,0.14 -32.995,0.18 -67.481,0.32 -34.316,0.16 -34.598,0.16 -21.387,0.08 -13.429,0.1 -34.949,0.21 -17.512,0.09 -17.488,0.1 -17.512,0.08 -17.5,0.05 -17.461,0.05 -17.43,0.05 -17.402,0.03 h -3.848 l -13.496,0.06 -17.285,0.07 -17.219,0.03 -17.137,0.03 h -17.05 l -16.953,-0.01 -16.856,-0.04 -16.719,-0.06 -7.511,-0.03 -9.102,0.09 -16.473,0.15 -16.328,0.11 -16.172,0.07 -4.863,0.01 -11.164,0.11 -15.84,0.11 -15.664,0.06 -15.476,0.01 -15.254,-0.03 -9.961,-0.06 -5.117,-0.01 -7.442,-0.03 -7.402,-0.06 -7.336,-0.07 -7.274,-0.07 -7.226,-0.1 -7.149,-0.1 -7.109,-0.13 -7.043,-0.13 -6.961,-0.14 -6.906,-0.16 -6.836,-0.18 -6.777,-0.18 -6.7,-0.19 -6.64,-0.21 -2.391,2.05 2.176,2.25 6.621,0.47 6.699,0.45 6.778,0.47 6.828,0.45 6.902,0.45 6.965,0.43 7.039,0.45 7.09,0.44 7.16,0.43 7.215,0.44 7.277,0.43 7.332,0.42 7.403,0.44 7.441,0.42 5.098,0.29 9.961,0.53 15.273,0.8 15.48,0.79 15.665,0.81 15.839,0.77 11.161,0.55 4.863,0.21 16.191,0.66 16.328,0.64 16.485,0.64 9.121,0.35 7.512,0.16 16.746,0.35 16.855,0.34 16.973,0.32 17.07,0.31 17.16,0.28 17.227,0.28 17.293,0.26 13.515,0.19 3.848,0.05 17.414,0.16 17.449,0.18 17.481,0.13 17.511,0.15 17.508,0.12 17.52,0.12 17.512,0.11 34.96,0.21 13.438,0.06 21.395,0.04 34.609,0.05 34.316,0.04 67.481,0.07 32.996,0.03 32.42,0.05 31.74,0.08 31.01,0.08 15.19,0.05 14.98,0.08 14.77,0.08 14.53,0.08 9.75,0.08 h 4.54 l 14.03,0.05 13.78,0.06 13.51,0.08 13.21,0.1 12.94,0.12 12.64,0.12 12.33,0.14 4.06,0.07 4.08,0.06 8.19,0.17 8.2,0.19 8.25,0.23 8.27,0.25 8.3,0.28 8.33,0.3 0.73,0.04 7.62,0.28 8.36,0.32 8.39,0.36 8.43,0.35 8.44,0.38 16.93,0.77 17.01,0.79 17.08,0.81 17.12,0.78 8.59,0.39 8.58,0.37 8.61,0.34 8.61,0.34 8.62,0.32 8.62,0.3 2.05,0.06 6.6,0.2 8.64,0.23 8.63,0.21 8.64,0.17 8.65,0.13 4.33,0.05 4.32,0.05 4.33,0.05 4.32,0.03 4.33,0.02 h 4.31 4.33"/></g></g><path
    id="path38"
    style="fill:#f03b8d;fill-opacity:1;fill-rule:evenodd;stroke:none"
    d="m 1616.15,1826.34 c 0,0 432.35,1135.3 -435.34,1689.84 0,0 -532.189,-903.68 435.34,-1689.84"/><path
    id="path40"
    style="fill:#f791bf;fill-opacity:1;fill-rule:evenodd;stroke:none"
    d="m 1282.48,3030 c -9.15,35.61 -18.19,71.29 -27.08,107.07 -20.16,82.04 -33.66,165.75 -54.11,248.76 0,0 -2.97,14.21 4.44,9.99 l 2.92,-5.7 c 37.31,-128.35 65.94,-257.71 104.34,-394.33 0,0 10.79,-39 19.02,-68.83 1.92,-6.96 3.85,-13.9 5.77,-20.84 1.29,1.56 2.13,2.6 2.13,2.6 59.61,66.67 129.59,124.23 187.24,190.49 1.49,0.2 4.47,0.63 4.47,0.63 0,0 -31.38,-46.34 -50.04,-67.2 -44.8,-50.07 -93.97,-97.73 -137.81,-148.09 28.89,-103.92 58.13,-207.78 87.66,-311.78 2.89,3.39 5.79,6.77 8.71,10.12 11.25,12.9 22.51,25.77 33.76,38.66 62.48,71.84 122.77,145.77 175.44,225.64 0,0 2.36,3.78 3.52,-2.15 -20,-34.93 -41.02,-69.09 -63.69,-102.84 0,0 -20.8,-29.57 -33.75,-46.68 -17.38,-22.95 -35.31,-45.43 -53.65,-67.59 -20.23,-24.45 -40.64,-48.68 -62.68,-71.66 l -2.82,-0.53 c 13.22,-46.55 26.49,-93.15 39.82,-139.79 l 0.36,-0.03 3.86,-2.73 -3.17,-0.88 c 13.15,-46.1 26.37,-92.25 39.61,-138.48 0,0 10.19,-38.08 17.44,-65.22 l 0.98,-3.83 c 6.45,-25.07 12.92,-50.15 19.5,-75.19 l 7.43,-28.58 c 6.05,-23.04 12.15,-46.07 18.28,-69.07 l -2.93,-6.83 -6.17,4.13 -11.06,33.98 c -14.79,45.26 -29.62,90.57 -44.46,135.9 0,0 -13.74,41.69 -21.49,68.19 -3.36,11.44 -6.7,22.87 -10.05,34.3 -10.02,34.31 -19.99,68.63 -29.95,102.97 l -0.62,2.14 c -11.68,-1.9 -18.45,-2.99 -18.45,-2.99 0,0 -48.14,-3.31 -86.62,-3.37 -71.71,-0.1 -146.47,1.24 -211.39,30.95 l -3.8,3.36 c 0,0 2.04,1.04 5.05,0.36 13.46,-2.82 21.38,-4.16 31.57,-6.52 83.06,-18.67 169.18,-13.36 253.22,-9.05 0,0 11.98,-0.82 27.28,-1.84 l -0.03,0.05 c -27.44,96.39 -54.73,192.78 -81.48,289.44 -8.07,0.28 -21.35,1.02 -43.04,2 -63.97,2.87 -127.96,20.45 -189.12,42.3 l -57.3,24.22 -5.31,4.14 c 0,0 3.58,0.46 6.71,-0.62 89.76,-30.31 182.69,-50.99 269.08,-52.93 5.52,-0.12 10.11,-0.44 13.94,-0.87 -26.03,94.34 -51.55,188.95 -76.18,284.1 -50.68,22.63 -100.93,45.62 -148.1,77.86 0,0 -25.21,19.23 -44.91,37.46 l -3.12,5.64 c 0,0 3.23,0.07 6.1,-2.01 26.7,-18.86 49.93,-31.74 99.3,-56.33 28.47,-14.18 57.24,-27.59 85.43,-42.07"/><path
    id="path42"
    style="fill:#5976c3;fill-opacity:1;fill-rule:evenodd;stroke:none"
    d="m 1610.3,1712.42 c 0,0 -196.53,714.53 -1034.062,1008.41 C 404.461,2781.08 65.7227,2702.96 367.684,2264.97 560.555,1985.18 1243.01,1620.55 1610.3,1712.42"/><g
    id="g44"><g
           clip-path="url(#clipPath50)"
           id="g46"><path
             id="path52"
             style="fill:#3a59b0;fill-opacity:1;fill-rule:evenodd;stroke:none"
             d="m 495.508,2485.52 c -3.195,4.84 -6.125,9.68 -8.586,14.4 -50.41,96.52 -53.535,210.71 -11.375,312.71 0,0 2.558,6.77 6.621,-2.84 -0.949,-3.18 -1.855,-6.35 -2.746,-9.54 -30.633,-114.59 -5.938,-241.71 64.016,-343 43.542,-25.65 87.156,-51.16 130.769,-76.74 -15.176,52.66 -35.066,157.05 4.668,258.85 11.594,29.73 34.277,67.16 34.277,67.16 3.645,1.24 7.305,2.45 10.95,3.69 0,0 -33.106,-106.53 -44.239,-165.56 -10.898,-57.66 -8.593,-119.3 13.867,-175.56 56.817,-33.3 113.641,-66.66 170.418,-100.34 0.911,0.41 1.817,0.81 2.735,1.2 -6.238,9.35 -12.383,19.52 -17.586,29.93 0,0 -28.332,67.32 -34.406,132.16 -1.582,16.73 4.25,151.16 60.722,255.92 0,0 2.891,3.63 7.336,4.95 0,0 -45.293,-162.24 -42.531,-234.9 2.734,-72.58 22.395,-145.36 54.043,-207.27 50.859,-30.28 101.672,-60.86 152.389,-91.92 -19.09,56.11 -56.323,187.85 -31.08,301.21 0,0 13.77,47.84 31.58,91.72 0,0 3.08,9.23 8.3,-3.38 0,0 -22.04,-125.05 -23.82,-165.2 -0.35,-7.8 -0.53,-15.58 -0.52,-23.41 0.04,-74.15 16.35,-147.07 44.09,-218.49 16.26,-10.01 32.5,-20.08 48.71,-30.21 22.37,-13.91 44.92,-27.61 67.71,-40.86 -40.67,89.29 -48.09,191.59 -43.99,287.86 l 10.66,75.92 c 0,0 0.94,21.77 7.06,11.54 0,0 0.55,-37.1 2.49,-82.92 0,0 -1.91,-123.55 17.42,-204.76 8.89,-37.32 22.28,-73.98 41.38,-107.54 51.64,-28.56 104.56,-54.24 159.49,-74.26 l 14.68,-18.85 c 0,0 -12.25,-9.62 -32.13,-2.68 -52.05,18.49 -102.89,40.52 -152.87,64.97 -22.62,-18.97 -67.09,-57.99 -85.98,-86.32 -21.75,-32.62 -37.19,-70.18 -42.36,-110.32 l -6.46,-4.99 c 0,0 -3.74,27.05 1.48,48.19 16.89,68.45 61.16,128.03 120.88,159.61 -47.27,23.57 -93.81,49.23 -139.93,76.05 -125.32,-38.41 -211.218,-178.86 -211.335,-309.06 l -5.774,-6.09 c 0,0 -7.508,23.42 -6.426,44.09 6.465,123.29 73.02,242.08 181.845,284.5 3.93,1.45 7.87,2.83 11.89,4.09 -62.063,36.85 -123.461,75.4 -184.953,113.33 -28.039,-20.25 -67.844,-50.94 -96.477,-80.82 -49.082,-51.22 -75.203,-124.12 -77.129,-194.93 l -4.121,-4.78 c 0,0 -13.203,97.86 24.524,167.53 29.746,54.95 77.011,98.4 128.054,128.47 -39.89,24.44 -79.863,48.52 -120.125,71.54 l -26.425,15.7 c -53.625,-12.62 -103.887,-39.13 -138.282,-83.1 -8.625,-11.06 -16.73,-22.76 -23.625,-35.35 -12.109,-22.2 -19.98,-46.68 -24.461,-72.01 l -7.265,-5.52 c 0,0 3.269,145.96 125.039,197.18 1.894,0.79 1.894,0.79 3.808,1.54 12.891,4.99 27.618,8.56 41.504,11.11 l -39.668,23.58 c -39.035,24.05 -90.793,56.61 -90.793,56.61 -9.09,5.89 -18.191,11.82 -27.246,17.78 -42.683,-30.88 -137.722,-104.53 -153.125,-158.14 -5.371,-18.67 -13.242,-46.35 -14.14,-21.82 -2.071,84.42 63.554,152.32 148.879,192.15 -56.016,37.4 -110.93,76.53 -166.047,119.89 0,0 -19.657,12.51 -4.012,14.27 0,0 76.309,-41.52 122.519,-69.21 21.739,-12.94 43.485,-25.85 65.235,-38.71" /></g></g><path
    id="path54"
    style="fill:#333697;fill-opacity:1;fill-rule:nonzero;stroke:none"
    d="m 2317.86,1580.42 c -31.32,89.7 -96.2,161.95 -178.41,199.32 0.24,12.53 0.03,25.15 -0.8,37.9 -15.14,231.45 -203.35,405.99 -420.38,389.85 -123.99,-9.23 -230.49,-78.73 -296.25,-179.74 -52.68,133.99 -180.88,223.71 -324.34,213.03 -180.172,-13.39 -316.059,-180.02 -303.492,-372.16 0.234,-3.67 0.605,-7.28 0.949,-10.91 -37.18,32.5 -84.727,52.01 -136.543,52.01 -119.074,0 -215.586,-102.93 -215.586,-229.89 0,-31.43 5.926,-61.37 16.629,-88.66 C 183.809,1650.15 -34.4141,1430.25 4.51172,1239.98 H 2778.76 c 0,0 -37.87,384.8 -460.9,340.44"/><g
    id="g56"><g
           clip-path="url(#clipPath62)"
           id="g58"><path
             id="path64"
             style="fill:#5876c4;fill-opacity:1;fill-rule:evenodd;stroke:none"
             d="m 897.773,1525.17 -192.96,6.46 305.417,346.8 309.46,-362.94 -185.4,4.67 V 1165.52 H 897.773 v 359.65" /></g></g><path
    id="path66"
    style="fill:#dc1c53;fill-opacity:1;fill-rule:evenodd;stroke:none"
    d="m 3439.5,2110.11 c -392.4,-107.96 -253.02,-665.48 286.7,-744.04 319.96,-46.65 719.89,269.69 415.88,560.04 -304.08,290.36 350.61,205.62 114.61,516.88 -236.03,311.2 -130.53,204.48 -55.86,444.62 25.99,83.61 3.82,203.35 -125.01,262.19 -137.8,62.93 -272.57,-58.25 -285.65,-154.64 -34.25,-250.72 104.47,-207.96 -236.07,-368.17 -340.56,-160.26 277.73,-408.91 -114.6,-516.88"/><g
    id="g68"><g
           clip-path="url(#clipPath74)"
           id="g70"><path
             id="path76"
             style="fill:#f791bf;fill-opacity:1;fill-rule:evenodd;stroke:none"
             d="m 3870.02,2194.72 c 2.62,11.08 5.24,22.15 7.87,33.21 27.38,114.67 52.4,230.48 72.77,347.65 l 1.29,7.45 c 6.32,42.08 14.82,98.85 14.82,98.85 l 4.82,35.04 c 12.56,89.89 23.75,180.1 42.56,268.55 l -5.86,12.85 c -3.4,-1.64 -6.82,-3.28 -10.22,-4.93 -25.33,-88 -43.37,-178.19 -63.19,-268.07 l -7.61,-34.4 c -5.68,-27.35 -11.38,-54.7 -17.13,-82.02 l -3.29,-15.48 c -3.27,-17.4 -6.61,-34.8 -9.95,-52.18 -18.25,-94.35 -38.64,-187.18 -60.15,-279.28 -16.57,27.09 -36.24,53.05 -53.98,79.18 -26.3,38.35 -52.99,76.51 -79.5,114.76 0,0 -40.71,55.7 -69.95,97.38 0,0 -3.42,5.11 -4.97,-2.33 57.5,-93.64 119.2,-183.27 181.68,-276.57 7.59,-11.45 14.96,-23.08 21.43,-34.95 -44.87,-190.4 -94.16,-378.09 -138.72,-570.57 -0.76,-3.29 -1.52,-6.58 -2.3,-9.86 -5.42,8.54 -11.03,17.01 -16.77,25.43 l -1.53,2.2 c -66.77,86.97 -147.89,165 -213.65,252.33 l -14.41,4.83 c 0,0 -1.51,-7.73 -2.25,-11.59 63.38,-87.95 141.99,-166.68 207.72,-254.05 0,0 16.53,-19.72 34.94,-44.74 -38.51,-165.09 -78.21,-329.92 -122.38,-493.66 l -11.03,-62.07 c 0.84,-11.13 0.84,-11.12 1.36,-22.23 l 11.51,-22.02 c 0,0 13.99,8.09 20.99,12.13 0,0 6,9.24 14.85,21.27 7.88,22.14 18.49,52.12 18.49,52.12 51.06,192.63 95.97,387.73 139.82,582.92 45.23,8.5 89.62,19.44 133.81,30.93 l 49.15,13.46 c 12.75,4.02 29.38,9.17 29.38,9.17 4.61,1.54 9.24,3.09 13.86,4.6 10.57,3.45 21.17,6.87 31.77,10.28 15.23,4.81 22.78,7.01 22.78,7.01 l 4.5,7.83 c 0,0 -7.18,4.92 -14.16,3.65 -28.79,-5.27 -67.4,-13.49 -67.4,-13.49 -14.18,-3.41 -30.32,-7.41 -30.32,-7.41 -56.44,-16.25 -112.05,-34.01 -169.29,-47.9 33.24,148.15 65.98,296.29 100.46,443.39 64.85,65.46 137.04,125.03 213.76,179.38 0,0 37.3,28.81 63.31,47.15 0,0 3.79,9.71 -9.61,2.16 -26.69,-15.09 -63.28,-37.34 -63.28,-37.34 -70.31,-48.41 -136.47,-101.64 -196.8,-160.02" /></g></g><path
    id="path78"
    style="fill:#f2569d;fill-opacity:1;fill-rule:evenodd;stroke:none"
    d="m 3784.88,1412.46 c -18.36,181.27 98.04,374.78 252.96,463.11 98.85,56.36 256.3,94.03 296.87,209.98 57.43,164.08 -53.98,329 87.7,476.5 71.61,74.56 342.94,244.98 396.81,56.53 33,-115.5 -105.63,-199.04 -121.91,-304.78 -29.78,-193.59 171.26,-371.78 55.99,-563.81 -80.91,-134.77 -292.14,-153.05 -350.52,-292.01 -56.94,-135.58 11.96,-331.6 -81.7,-454.74 -32.07,-42.17 -75.07,-73.849 -122.57,-97.138 -29.84,-14.661 -356.14,-38.602 -356.14,-38.602 0,0 -47.3,241.93 -57.39,427.48 l -0.1,117.48"/><path
    id="path80"
    style="fill:#db1c53;fill-opacity:1;fill-rule:evenodd;stroke:none"
    d="m 4621.05,2531.96 -2.12,-3.51 -2.04,-3.57 -1.99,-3.63 -1.9,-3.73 -1.21,-2.44 -0.86,-1.17 -2.46,-3.32 -2.44,-3.37 -2.41,-3.38 -2.41,-3.43 -2.38,-3.47 -2.38,-3.49 -2.34,-3.52 -1.15,-1.78 -1.15,-1.77 -1.16,-1.79 -1.13,-1.79 -1.15,-1.81 -1.13,-1.81 -1.12,-1.82 -1.11,-1.82 -1.11,-1.82 -1.12,-1.84 -1.09,-1.84 -1.1,-1.85 -1.07,-1.85 -1.07,-1.87 -1.06,-1.87 -1.05,-1.86 -1.06,-1.89 -1.03,-1.88 -1.04,-1.88 -1.02,-1.89 -1,-1.89 -1.02,-1.92 -0.98,-1.91 -1,-1.91 -0.96,-1.92 -0.96,-1.92 -0.97,-1.93 -0.94,-1.93 -0.92,-1.94 -0.93,-1.93 -0.93,-1.96 -0.89,-1.95 -0.89,-1.95 -0.88,-1.96 -0.88,-1.97 -0.85,-1.96 -0.85,-1.96 -0.84,-1.98 -0.82,-1.97 -0.82,-1.98 -0.78,-1.98 -0.81,-1.98 -0.76,-1.98 -0.76,-2 -0.75,-1.99 -0.72,-2 -0.74,-1.99 -0.71,-2 -0.69,-2 -0.68,-2 -0.68,-2 -0.48,-1.47 -0.17,-0.53 -0.65,-2.01 -0.63,-2 -0.63,-2.01 -0.6,-2.02 -0.61,-2 -0.58,-2.01 -0.56,-2.02 -0.54,-2.01 -0.54,-2 -0.52,-2.01 -0.5,-2.03 -0.5,-2 -0.47,-2.02 -0.45,-2.02 -0.45,-2.01 -0.42,-2.02 -0.41,-2.01 -0.4,-2.01 -0.38,-2.03 -0.35,-2 -0.34,-2 -0.33,-2.03 -0.32,-2.01 -0.29,-2 -0.25,-2.02 -0.27,-2.01 -0.24,-1.99 -0.23,-2.01 -0.19,-2 -0.19,-2.01 -0.17,-2 -0.15,-1.99 -0.13,-2 -0.11,-1.99 -0.11,-2 -0.07,-1.97 -0.06,-1.99 -0.04,-1.98 -0.02,-1.99 -0.01,-1.98 0.04,-1.98 0.02,-1.96 0.07,-1.97 0.08,-1.97 0.1,-1.96 0.11,-1.97 0.14,-1.94 v -0.04 l 0.15,-1.93 0.14,-1.94 0.19,-1.95 0.2,-1.94 0.21,-1.95 0.16,-1.3 0.17,-1.3 0.18,-1.29 0.18,-1.31 0.2,-1.29 0.2,-1.29 0.21,-1.3 0.22,-1.29 0.23,-1.27 0.24,-1.26 0.5,-2.58 0.54,-2.57 0.55,-2.53 0.59,-2.54 0.63,-2.54 0.65,-2.52 0.69,-2.53 0.7,-2.51 0.74,-2.51 0.75,-2.51 0.78,-2.51 0.8,-2.5 0.84,-2.5 0.85,-2.49 0.88,-2.5 0.9,-2.49 0.91,-2.49 0.93,-2.48 0.96,-2.49 0.48,-1.24 0.47,-1.26 0.96,-2.5 0.95,-2.5 0.98,-2.5 1,-2.5 1,-2.51 1.02,-2.51 1.02,-2.49 2.09,-5.04 2.13,-5.02 2.15,-5.05 2.19,-5.06 4.37,-10.17 2.19,-5.13 2.18,-5.14 2.15,-5.16 1.07,-2.61 1.07,-2.61 1.05,-2.63 1.05,-2.62 1.03,-2.63 1.02,-2.63 1.02,-2.66 1,-2.66 0.97,-2.68 0.97,-2.67 0.95,-2.71 0.92,-2.69 0.92,-2.73 0.9,-2.71 0.59,-1.87 0.58,-1.84 0.57,-1.85 0.58,-1.85 0.54,-1.87 0.55,-1.88 0.54,-1.89 0.51,-1.88 0.52,-1.9 0.51,-1.9 0.49,-1.91 0.49,-1.9 0.49,-1.9 0.45,-1.94 0.48,-1.92 0.44,-1.93 0.44,-1.95 0.44,-1.94 0.43,-1.95 0.41,-1.96 0.4,-1.94 0.4,-1.97 0.37,-1.98 0.38,-1.97 0.37,-1.97 0.35,-1.97 0.36,-2 0.32,-1.99 0.33,-1.99 0.32,-1.99 0.32,-2.01 0.29,-1.99 0.27,-2.02 0.3,-1.99 0.26,-2.02 0.26,-2.02 0.24,-2.03 0.24,-2.02 0.24,-2.02 0.2,-2.02 0.21,-2.03 0.19,-2.04 0.2,-2.03 0.17,-2.04 0.18,-2.04 0.14,-2.05 0.16,-2.03 0.13,-2.05 0.12,-2.05 0.1,-2.04 0.12,-2.05 0.09,-2.06 0.09,-2.05 0.07,-2.04 0.06,-2.06 0.05,-2.06 0.04,-2.05 0.03,-2.07 0.02,-2.04 0.01,-2.07 v -2.05 l -0.01,-2.06 -0.03,-2.06 -0.05,-2.05 -0.04,-2.07 -0.05,-2.06 -0.07,-2.05 -0.07,-2.05 -0.1,-2.06 -0.1,-2.06 -0.12,-2.04 -0.11,-2.06 -0.16,-2.06 -0.14,-2.05 -0.16,-2.05 -0.17,-2.05 -0.18,-2.04 -0.19,-2.05 -0.14,-1.35 -0.06,-0.69 -0.23,-2.04 -0.23,-2.05 -0.25,-2.02 -0.25,-2.04 -0.27,-2.04 -0.28,-2.03 -0.3,-2.02 -0.3,-2.03 -0.32,-2.02 -0.33,-2.02 -0.32,-2.01 -0.37,-2.02 -0.36,-2 -0.36,-2.01 -0.4,-1.99 -0.41,-2.01 -0.42,-2 -0.42,-1.98 -0.42,-2 -0.46,-1.98 -0.45,-1.97 -0.47,-1.98 -0.5,-1.97 -0.51,-1.95 -0.51,-1.97 -0.52,-1.95 -0.54,-1.96 -0.55,-1.95 -0.56,-1.94 -0.58,-1.92 -0.59,-1.94 -0.61,-1.93 -0.6,-1.92 -0.63,-1.9 -0.64,-1.91 -0.67,-1.9 -0.65,-1.9 -0.7,-1.9 -0.69,-1.86 -0.7,-1.89 -0.74,-1.85 -0.72,-1.87 -0.75,-1.86 -0.76,-1.85 -0.78,-1.83 -0.78,-1.84 -0.81,-1.84 -0.82,-1.81 -0.84,-1.79 -0.89,-1.93 -0.91,-1.92 -0.91,-1.9 -0.92,-1.89 -0.94,-1.86 -0.93,-1.88 -0.94,-1.84 -0.95,-1.84 -0.97,-1.82 -0.95,-1.81 -0.96,-1.8 -0.98,-1.79 -0.98,-1.77 -1,-1.76 -1,-1.76 -1,-1.74 -1.01,-1.72 -1.02,-1.7 -1.03,-1.71 -1.02,-1.69 -1.05,-1.68 -1.02,-1.66 -1.07,-1.66 -1.04,-1.64 -1.07,-1.65 -1.07,-1.61 -1.07,-1.62 -1.09,-1.59 -1.07,-1.59 -1.09,-1.58 -1.11,-1.56 -1.11,-1.56 -1.1,-1.54 -1.13,-1.53 -1.11,-1.54 -1.14,-1.49 -1.13,-1.52 -1.14,-1.48 -1.15,-1.48 -1.14,-1.48 -1.16,-1.46 -1.17,-1.44 -1.16,-1.45 -1.18,-1.42 -1.18,-1.42 -1.18,-1.41 -1.2,-1.4 -1.18,-1.39 -1.2,-1.38 -1.22,-1.37 -1.2,-1.36 -1.22,-1.35 -1.22,-1.33 -1.24,-1.35 -1.23,-1.32 -1.22,-1.31 -1.25,-1.3 -1.24,-1.29 -1.25,-1.29 -1.27,-1.28 -1.24,-1.27 -1.27,-1.26 -1.27,-1.24 -1.29,-1.26 -2.54,-2.43 -2.58,-2.44 -2.59,-2.39 -2.62,-2.36 -2.62,-2.32 -2.64,-2.29 -2.67,-2.28 -2.67,-2.22 -2.68,-2.21 -2.71,-2.17 -2.71,-2.15 -2.73,-2.12 -2.75,-2.1 -2.76,-2.06 -2.76,-2.04 -2.8,-2.02 -2.78,-2 -2.81,-1.96 -2.82,-1.94 -2.83,-1.92 -2.83,-1.9 -2.85,-1.89 -2.86,-1.85 -2.86,-1.85 -2.88,-1.82 -2.89,-1.8 -2.9,-1.8 -2.9,-1.76 -2.9,-1.75 -2.93,-1.74 -2.92,-1.71 -2.93,-1.71 -2.94,-1.7 -2.94,-1.69 -2.96,-1.66 -2.96,-1.67 -2.96,-1.64 -2.97,-1.63 -2.97,-1.63 -2.99,-1.63 -0.44,-0.22 -5.52,-2.98 -6.01,-3.16 -6.01,-3.16 -6.01,-3.13 -6.03,-3.11 -6.03,-3.12 -12.09,-6.23 -6.05,-3.12 -6.04,-3.13 -6.03,-3.15 -6.03,-3.19 -6.04,-3.19 -3.01,-1.62 -3,-1.62 -3.01,-1.63 -3,-1.66 -2.99,-1.64 -3,-1.67 -2.98,-1.68 -3,-1.68 -2.98,-1.7 -2.98,-1.71 -2.98,-1.74 -2.96,-1.75 -2.96,-1.76 -2.96,-1.78 -2.95,-1.78 -2.95,-1.82 -2.95,-1.83 -2.93,-1.85 -2.92,-1.87 -2.92,-1.89 -2.92,-1.91 -2.9,-1.93 -2.9,-1.94 -2.9,-1.98 -2.87,-2 -2.87,-2.03 -2.88,-2.04 -2.87,-2.06 -2.84,-2.09 -2.86,-2.15 -5.87,-4.42 -5.83,-4.44 -5.77,-4.46 -5.73,-4.42 -5.68,-4.46 -5.61,-4.44 -5.57,-4.44 -5.53,-4.43 -5.46,-4.44 -5.41,-4.44 -5.37,-4.44 -5.32,-4.43 -5.26,-4.43 -5.22,-4.44 -5.13,-4.44 -5.12,-4.42 -5.07,-4.46 -5,-4.43 -4.96,-4.44 -4.89,-4.44 -4.86,-4.42 -4.81,-4.44 -4.76,-4.46 -4.71,-4.44 -2.31,-2.22 -2.33,-2.22 -2.32,-2.22 -2.29,-2.22 -2.28,-2.22 -2.27,-2.22 -2.26,-2.23 -2.24,-2.2 -2.25,-2.23 -2.21,-2.23 -2.21,-2.22 -2.2,-2.24 -2.19,-2.22 -2.16,-2.21 -2.16,-2.24 -2.14,-2.22 -2.14,-2.23 -2.12,-2.23 -2.12,-2.23 -2.09,-2.22 -2.08,-2.23 -2.09,-2.23 -2.05,-2.23 -2.05,-2.23 -2.03,-2.23 -2.04,-2.22 -2.02,-2.24 -2,-2.23 -1.98,-2.23 -1.97,-2.25 -1.97,-2.22 -1.95,-2.23 -1.94,-2.25 -1.94,-2.24 -1.9,-2.22 -1.89,-2.24 -1.9,-2.23 -1.87,-2.26 -1.89,-2.23 -1.85,-2.24 -1.85,-2.25 -1.82,-2.24 -1.82,-2.23 -1.81,-2.25 -1.8,-2.25 -1.78,-2.25 -1.77,-2.23 -1.76,-2.26 -1.76,-2.24 -1.73,-2.25 -1.72,-2.26 -1.7,-2.24 -1.7,-2.25 -1.71,-2.26 -1.66,-2.25 -1.67,-2.25 -1.65,-2.26 -1.65,-2.26 -1.63,-2.25 -1.61,-2.26 -1.61,-2.26 -1.6,-2.25 -1.57,-2.27 -1.58,-2.26 -1.56,-2.26 -1.55,-2.26 -1.54,-2.28 -1.51,-2.27 -1.53,-2.26 -1.49,-2.28 -1.49,-2.25 -1.48,-2.28 -1.47,-2.27 -1.46,-2.27 -1.44,-2.28 -1.44,-2.28 -1.43,-2.28 -1.39,-2.28 -1.41,-2.27 -1.38,-2.28 -0.73,-1.21 -0.67,-1.07 -1.39,-2.26 -1.39,-2.27 -1.37,-2.26 -1.37,-2.28 -1.35,-2.27 -1.33,-2.26 -1.34,-2.29 -1.32,-2.27 -1.3,-2.28 -1.3,-2.28 -1.29,-2.27 -1.28,-2.28 -1.27,-2.31 -1.25,-2.28 -1.23,-2.28 -1.23,-2.29 -1.23,-2.3 -1.19,-2.29 -1.19,-2.3 -1.2,-2.3 -1.17,-2.31 -1.17,-2.29 -1.16,-2.31 -1.12,-2.31 -1.14,-2.3 -1.11,-2.32 -1.12,-2.31 -1.08,-2.32 -1.1,-2.31 -1.07,-2.32 -1.07,-2.32 -1.05,-2.34 -1.04,-2.32 -1.03,-2.32 -1.02,-2.33 -1.01,-2.33 -0.99,-2.34 -1,-2.34 -0.96,-2.33 -0.99,-2.36 -0.95,-2.34 -0.94,-2.34 -0.93,-2.36 -0.93,-2.34 -0.91,-2.35 -0.9,-2.36 -0.88,-2.35 -0.88,-2.37 -0.87,-2.37 -0.86,-2.37 -0.86,-2.36 -0.01,-0.06 -0.83,-2.3 -0.84,-2.37 -0.82,-2.37 -0.82,-2.39 -0.81,-2.36 -0.8,-2.38 -0.77,-2.4 -0.78,-2.38 -0.78,-2.4 -0.75,-2.37 -0.73,-2.4 -0.73,-2.41 -0.74,-2.38 -0.69,-2.41 -0.71,-2.41 -0.69,-2.42 -0.67,-2.4 -0.68,-2.42 -0.65,-2.41 -0.66,-2.43 -0.62,-2.42 -0.63,-2.42 -0.63,-2.42 -0.6,-2.45 -0.59,-2.43 -0.59,-2.44 -0.57,-2.44 -0.58,-2.44 -0.54,-2.46 -0.54,-2.43 -0.54,-2.46 -0.51,-2.46 -0.52,-2.46 -0.5,-2.47 -0.49,-2.46 -0.48,-2.47 -0.48,-2.48 -0.46,-2.48 -0.44,-2.48 -0.45,-2.47 -0.43,-2.5 -0.41,-2.49 -0.41,-2.49 -0.39,-2.48 -0.39,-2.51 -0.4,-2.51 -0.35,-2.5 -0.21,-1.43 -0.2,-1.07 -0.46,-2.5 -0.46,-2.5 -0.44,-2.51 -0.42,-2.51 -0.43,-2.52 -0.4,-2.53 -0.39,-2.52 -0.4,-2.52 -0.37,-2.54 -0.36,-2.56 -0.36,-2.52 -0.33,-2.55 -0.33,-2.56 -0.32,-2.56 -0.29,-2.57 -0.3,-2.56 -0.27,-2.58 -0.29,-2.55 -0.26,-2.6 -0.26,-2.57 -0.22,-2.59 -0.22,-2.61 -0.23,-2.58 -0.2,-2.61 -0.2,-2.6 -0.19,-2.62 -0.16,-2.61 -0.16,-2.64 -5.93,-5.92 -5.8,6.07 -0.09,2.65 -0.1,2.66 -0.08,2.67 -0.06,2.65 -0.06,2.67 -0.06,2.65 -0.04,2.66 -0.04,2.66 -0.03,2.64 v 2.65 l -0.01,2.65 -0.01,2.64 0.01,2.65 0.03,2.64 0.03,2.65 0.03,2.63 0.04,2.64 0.06,2.63 0.07,2.64 0.08,2.63 0.08,2.63 0.11,2.63 0.09,2.63 0.12,2.62 0.12,2.61 0.13,2.63 0.14,2.62 0.15,2.62 0.07,1.13 0.17,1.48 0.27,2.6 0.32,2.59 0.29,2.6 0.32,2.6 0.33,2.59 0.35,2.58 0.35,2.58 0.36,2.59 0.36,2.59 0.39,2.57 0.4,2.58 0.39,2.57 0.42,2.58 0.44,2.56 0.43,2.58 0.46,2.57 0.45,2.56 0.47,2.55 0.47,2.56 0.5,2.55 0.49,2.55 0.53,2.56 0.53,2.56 0.52,2.54 0.54,2.54 0.56,2.54 0.57,2.54 0.58,2.54 0.59,2.53 0.6,2.53 0.6,2.55 0.63,2.51 0.63,2.54 0.65,2.52 0.65,2.53 0.66,2.52 0.68,2.53 0.69,2.5 0.7,2.53 0.7,2.51 0.72,2.51 0.74,2.51 0.75,2.51 0.75,2.5 0.76,2.5 0.78,2.51 0.78,2.41 v 0.09 l 0.83,2.49 0.81,2.49 0.84,2.49 0.84,2.48 0.86,2.5 0.87,2.47 0.88,2.48 0.88,2.48 0.9,2.48 0.92,2.48 0.91,2.46 0.94,2.48 0.94,2.47 0.97,2.47 0.97,2.45 0.96,2.47 1,2.46 1.01,2.46 1.01,2.46 1.03,2.46 1.03,2.46 1.04,2.44 1.07,2.45 1.06,2.45 1.09,2.45 1.08,2.45 1.12,2.44 1.12,2.45 1.12,2.44 1.14,2.44 1.16,2.42 1.15,2.44 1.18,2.43 1.18,2.45 1.2,2.42 1.21,2.43 1.22,2.41 1.23,2.44 1.25,2.42 1.25,2.42 1.26,2.42 1.29,2.42 1.28,2.42 1.3,2.41 1.32,2.43 1.32,2.4 1.34,2.41 1.34,2.41 1.36,2.41 1.38,2.41 1.37,2.4 0.66,1.13 0.74,1.25 1.45,2.4 1.46,2.37 1.47,2.37 1.46,2.38 1.5,2.38 1.49,2.37 1.5,2.36 1.53,2.37 1.53,2.37 1.54,2.36 1.57,2.38 1.56,2.34 1.59,2.37 1.58,2.36 1.61,2.36 1.62,2.35 1.62,2.35 1.64,2.36 1.65,2.34 1.66,2.35 1.67,2.35 1.69,2.36 1.7,2.32 1.7,2.35 1.73,2.35 1.72,2.33 1.75,2.34 1.76,2.34 1.78,2.33 1.77,2.34 1.8,2.33 1.8,2.33 1.81,2.33 1.83,2.33 1.84,2.34 1.86,2.31 1.85,2.33 1.88,2.31 1.89,2.32 1.9,2.33 1.92,2.32 1.92,2.32 1.93,2.32 1.96,2.32 1.95,2.31 1.97,2.31 1.99,2.32 2,2.29 2,2.33 2.03,2.3 2.02,2.31 2.04,2.3 2.06,2.31 2.07,2.31 2.08,2.29 2.09,2.31 2.1,2.3 2.13,2.3 2.13,2.3 2.13,2.29 2.17,2.31 2.16,2.28 2.18,2.31 2.18,2.29 2.2,2.29 2.21,2.29 2.24,2.3 2.24,2.29 2.24,2.28 2.26,2.29 2.28,2.29 2.29,2.28 2.3,2.31 2.31,2.26 2.32,2.29 2.34,2.29 2.35,2.29 2.36,2.27 2.38,2.28 2.38,2.3 4.8,4.55 4.88,4.55 4.9,4.56 4.95,4.56 5.01,4.55 5.06,4.54 5.12,4.56 5.14,4.53 5.22,4.56 5.25,4.54 5.3,4.53 5.36,4.54 5.43,4.55 5.44,4.53 5.51,4.53 5.56,4.55 5.61,4.53 5.68,4.52 5.7,4.55 5.77,4.52 5.8,4.54 5.88,4.52 5.91,4.54 5.99,4.55 3.02,2.25 3.01,2.23 3.02,2.2 3.03,2.16 3.03,2.15 3.05,2.12 3.06,2.1 3.04,2.06 3.06,2.03 3.06,2.02 3.06,2 3.07,1.97 3.08,1.94 3.07,1.92 3.08,1.9 3.08,1.88 3.08,1.86 3.07,1.85 3.08,1.81 3.09,1.81 3.08,1.79 3.09,1.77 3.08,1.74 3.07,1.75 3.09,1.71 3.09,1.71 3.07,1.7 3.08,1.69 3.08,1.66 3.07,1.66 6.13,3.28 6.13,3.24 6.11,3.21 6.09,3.18 6.08,3.15 12.07,6.26 5.99,3.12 5.99,3.1 5.94,3.11 5.91,3.11 5.87,3.14 5.42,2.9 0.42,0.24 2.91,1.57 2.89,1.57 2.89,1.59 2.87,1.59 2.85,1.6 2.85,1.6 2.85,1.62 2.82,1.63 2.82,1.64 2.81,1.65 2.79,1.66 2.79,1.66 2.75,1.69 2.75,1.69 2.74,1.7 2.73,1.71 2.73,1.74 2.69,1.75 2.68,1.77 2.67,1.79 2.66,1.79 2.64,1.83 2.61,1.82 2.62,1.87 2.6,1.87 2.57,1.89 2.56,1.92 2.55,1.95 2.53,1.95 2.51,1.98 2.5,2 2.47,2.04 2.48,2.05 2.45,2.08 2.43,2.09 2.4,2.12 2.39,2.16 2.38,2.18 2.36,2.22 2.35,2.24 1.16,1.13 1.16,1.14 1.14,1.14 1.15,1.14 1.14,1.19 1.15,1.15 1.12,1.17 1.13,1.19 1.13,1.19 1.12,1.21 1.11,1.21 1.13,1.21 1.09,1.24 1.11,1.22 1.11,1.24 1.07,1.25 1.09,1.26 1.08,1.27 1.07,1.29 1.08,1.28 1.07,1.29 1.06,1.3 1.07,1.32 1.05,1.32 1.04,1.34 1.04,1.34 1.04,1.36 1.03,1.35 1.03,1.37 1.03,1.38 1,1.4 1.01,1.4 1,1.41 1.02,1.42 0.99,1.43 0.98,1.45 0.99,1.45 0.97,1.46 0.99,1.46 0.96,1.5 0.96,1.5 0.97,1.5 0.94,1.52 0.96,1.53 0.93,1.53 0.94,1.56 0.93,1.56 0.93,1.58 0.91,1.58 0.92,1.59 0.9,1.61 0.91,1.63 0.9,1.64 0.89,1.64 0.88,1.65 0.88,1.68 0.87,1.67 0.85,1.69 0.87,1.71 0.85,1.72 0.86,1.75 0.83,1.74 0.85,1.74 0.82,1.78 0.74,1.6 0.73,1.61 0.71,1.6 0.7,1.63 0.69,1.63 0.69,1.63 0.66,1.65 0.65,1.65 0.65,1.66 0.63,1.67 0.61,1.67 0.61,1.7 0.61,1.69 0.58,1.69 0.58,1.71 0.56,1.7 0.56,1.72 0.55,1.73 0.52,1.73 0.54,1.74 0.5,1.75 0.5,1.74 0.47,1.77 0.48,1.77 0.46,1.76 0.47,1.78 0.44,1.77 0.43,1.8 0.42,1.79 0.41,1.78 0.4,1.81 0.39,1.81 0.37,1.8 0.37,1.82 0.35,1.82 0.36,1.83 0.33,1.84 0.32,1.82 0.31,1.84 0.3,1.85 0.3,1.84 0.27,1.86 0.28,1.84 0.27,1.86 0.24,1.85 0.23,1.88 0.23,1.87 0.22,1.87 0.2,1.86 0.06,0.65 0.14,1.22 0.18,1.88 0.19,1.89 0.17,1.88 0.16,1.88 0.15,1.88 0.13,1.9 0.12,1.89 0.13,1.9 0.11,1.88 0.08,1.9 0.09,1.9 0.08,1.89 0.07,1.9 0.05,1.9 0.04,1.91 0.05,1.89 0.01,1.91 0.02,1.91 0.01,1.9 v 1.89 l -0.03,1.91 -0.02,1.9 -0.04,1.9 -0.03,1.91 -0.06,1.91 -0.07,1.89 -0.07,1.9 -0.08,1.9 -0.09,1.91 -0.1,1.89 -0.13,1.91 -0.11,1.88 -0.13,1.9 -0.15,1.89 -0.16,1.9 -0.15,1.87 -0.16,1.9 -0.2,1.89 -0.19,1.88 -0.19,1.88 -0.21,1.88 -0.21,1.86 -0.24,1.88 -0.22,1.86 -0.25,1.87 -0.25,1.86 -0.27,1.87 -0.27,1.85 -0.29,1.86 -0.29,1.84 -0.29,1.85 -0.31,1.84 -0.32,1.84 -0.34,1.85 -0.33,1.81 -0.34,1.83 -0.36,1.82 -0.35,1.81 -0.38,1.81 -0.37,1.81 -0.4,1.8 -0.39,1.8 -0.4,1.79 -0.42,1.77 -0.43,1.8 -0.43,1.76 -0.43,1.77 -0.44,1.76 -0.47,1.76 -0.46,1.74 -0.47,1.75 -0.49,1.74 -0.48,1.71 -0.5,1.72 -0.5,1.72 -0.52,1.72 -0.53,1.7 -0.52,1.68 -0.82,2.53 -0.82,2.52 -0.84,2.52 -0.88,2.51 -0.88,2.51 -0.91,2.5 -0.91,2.51 -0.94,2.52 -0.96,2.5 -0.96,2.52 -1,2.51 -0.99,2.51 -1,2.51 -1.03,2.51 -2.06,5.06 -2.1,5.05 -2.12,5.06 -4.29,10.19 -2.18,5.1 -2.14,5.14 -2.15,5.16 -2.11,5.18 -1.05,2.61 -1.05,2.62 -1.04,2.6 -1.01,2.63 -1.02,2.65 -1,2.63 -0.97,2.67 -0.51,1.35 -0.45,1.33 -0.92,2.67 -0.91,2.72 -0.88,2.69 -0.87,2.72 -0.85,2.73 -0.83,2.75 -0.8,2.75 -0.78,2.76 -0.74,2.77 -0.73,2.78 -0.7,2.8 -0.69,2.81 -0.65,2.83 -0.62,2.83 -0.6,2.85 -0.55,2.87 -0.53,2.88 -0.5,2.87 -0.44,2.89 -0.22,1.48 -0.21,1.46 -0.19,1.46 -0.2,1.47 -0.17,1.46 -0.18,1.49 -0.14,1.47 -0.17,1.48 -0.13,1.49 -0.12,1.51 -0.18,2.19 -0.15,2.22 -0.12,2.21 -0.1,2.22 -0.07,2.18 -0.01,0.03 -0.04,2.22 -0.01,2.22 0.02,2.21 0.02,2.22 0.05,2.21 0.08,2.21 0.1,2.2 0.11,2.22 0.14,2.2 0.17,2.2 0.16,2.21 0.21,2.19 0.21,2.22 0.25,2.19 0.27,2.19 0.26,2.2 0.32,2.19 0.3,2.18 0.34,2.19 0.36,2.18 0.36,2.18 0.4,2.18 0.41,2.19 0.43,2.16 0.45,2.17 0.47,2.17 0.48,2.16 0.51,2.16 0.52,2.16 0.51,2.15 0.56,2.17 0.57,2.14 0.57,2.14 0.61,2.16 0.61,2.12 0.65,2.14 0.63,2.14 0.67,2.13 0.68,2.11 0.69,2.13 0.7,2.11 0.72,2.1 0.74,2.12 0.75,2.11 0.76,2.08 0.79,2.11 0.78,2.09 0.23,0.56 0.6,1.52 0.82,2.08 0.84,2.08 0.86,2.06 0.88,2.07 0.87,2.06 0.89,2.06 0.9,2.05 0.93,2.04 0.94,2.04 0.92,2.04 0.95,2.02 0.97,2.03 0.99,2.01 0.98,2.01 1,2.01 0.99,2 1.03,1.99 1.02,2.01 1.05,1.98 1.05,1.97 1.07,1.98 1.06,1.96 1.08,1.96 1.09,1.96 1.1,1.94 1.11,1.94 1.11,1.94 1.13,1.93 1.13,1.93 1.15,1.92 1.13,1.91 1.17,1.9 1.17,1.89 1.17,1.9 1.17,1.88 1.2,1.87 1.19,1.88 1.21,1.85 1.22,1.85 1.22,1.85 1.21,1.85 1.24,1.82 1.23,1.83 1.25,1.81 1.24,1.81 1.25,1.81 1.28,1.79 1.25,1.79 1.28,1.77 1.27,1.77 1.27,1.77 2.58,3.48 2.59,3.46 2.62,3.43 2.62,3.4 2.64,3.35 2.65,3.34 2.66,3.28 0.94,1.14 2.14,1.78 3.25,2.76 3.21,2.73 3.14,2.75 3.11,2.73 3.88,0.34 0.34,-3.89"/><path
    id="path82"
    style="fill:#5976c3;fill-opacity:1;fill-rule:evenodd;stroke:none"
    d="m 3863.35,984.371 c 0,0 566.36,-152.562 1092.02,340.689 107.8,101.18 185.24,382.55 -232.15,342.72 -266.61,-25.43 -780.84,-375.34 -859.87,-683.409"/><g
    id="g84"><g
           clip-path="url(#clipPath90)"
           id="g86"><path
             id="path92"
             style="fill:#3a59b0;fill-opacity:1;fill-rule:evenodd;stroke:none"
             d="m 4825.13,1482.18 c 4.56,0.34 9.01,0.49 13.2,0.33 85.74,-3.07 165.3,-48.24 218.99,-121.62 0,0 3.67,-4.69 -4.5,-3.68 -1.82,2.02 -3.64,4 -5.49,5.99 -66.78,70.13 -163.57,104.82 -260.14,95.51 -34.45,-21.33 -68.83,-42.77 -103.26,-64.19 42.02,-10.74 121.34,-39.5 175.83,-111.01 15.91,-20.88 32.84,-53.11 32.84,-53.11 -0.57,-3.19 -1.16,-6.37 -1.71,-9.57 0,0 -60.3,68.61 -96.51,101.32 -35.35,31.97 -78.53,55.9 -125.83,62.77 -44.83,-27.9 -89.7,-55.8 -134.79,-83.51 -0.06,-0.84 -0.15,-1.67 -0.23,-2.51 8.83,0.69 18.19,0.98 27.35,0.49 0,0 57.15,-7.17 103.99,-29.66 12.09,-5.79 102.09,-65.95 152.14,-150.98 0,0 1.37,-3.63 0.56,-7.45 0,0 -93.82,100.71 -144.75,128.88 -50.86,28.16 -108.41,43.96 -163.13,46.43 -40.46,-24.77 -81.11,-49.4 -122.04,-73.76 45.88,-9.29 150.7,-36.7 218.73,-102.36 0,0 27.5,-30 50.72,-61.33 0,0 5.15,-6.09 -5.53,-4.69 0,0 -77.28,68.18 -104.15,86.18 -5.21,3.49 -10.49,6.86 -15.87,10.1 -50.9,30.8 -107.24,49.13 -166.99,58.42 -13.15,-7.79 -26.35,-15.54 -39.57,-23.24 -18.2,-10.65 -36.33,-21.53 -54.24,-32.76 77.01,-7.23 150.08,-44.31 214.56,-87.34 l 47.98,-39.37 c 0,0 14.57,-9.75 5.19,-9.99 0,0 -25.68,15.02 -57.88,32.63 0,0 -84.04,52.76 -147.24,72.31 -29.05,8.97 -59.4,14.37 -89.81,14.3 -39.58,-26.08 -77.67,-54.29 -112.66,-86.33 l -18.62,-2.96 c 0,0 -1.85,13.01 10.6,24.72 32.82,30.57 67.61,58.76 103.73,85.33 -4.28,24.51 -13.86,73.41 -25.99,99.06 -13.97,29.53 -33.77,56.48 -59.31,76.97 l -0.93,6.83 c 0,0 20.01,-8.51 32.49,-21.12 40.45,-40.86 64.21,-98.15 62.76,-155.17 34.48,24.94 70.09,48.48 106.33,71.21 22.13,108.06 -41.02,229.54 -130.33,283.75 l -1.94,6.77 c 0,0 18.97,-4.22 32.73,-13.61 82.11,-55.99 137.88,-154.26 124.89,-251.86 -0.51,-3.49 -1.1,-6.96 -1.78,-10.43 49.29,30.29 99.49,59.37 149.31,88.79 -3.04,29.02 -8.7,71.02 -18.14,104.49 -16.15,57.34 -56.09,106.84 -103.93,137.69 l -1.69,5.01 c 0,0 72.27,-30.97 105.48,-87.65 26.2,-44.7 37.74,-97.48 38.62,-147.49 32.21,19.15 64.2,38.52 95.57,58.53 l 21,12.89 c 12.08,44.65 13.34,92.6 -3.54,136.16 -4.25,10.92 -9.14,21.75 -15.11,32.05 -10.55,18.12 -24.31,34.08 -39.96,47.9 l -0.97,7.64 c 0,0 98.89,-63.08 86.94,-173.84 -0.19,-1.72 -0.19,-1.72 -0.42,-3.44 -1.56,-11.54 -4.81,-23.85 -8.43,-35.11 l 31.53,19.35 c 31.6,18.68 73.96,43.17 73.96,43.17 7.57,4.24 15.16,8.46 22.75,12.64 -4.68,44.2 -18.46,144.65 -49.28,178.24 -10.74,11.71 -26.69,28.99 -9.51,19.45 58.73,-33.55 79.94,-110 74.26,-189.24 47.34,25.61 95.43,49.69 146.52,72.17 0,0 16.19,9.25 11.35,-2.97 0,0 -58.02,-38.82 -94.9,-61.26 -17.29,-10.6 -34.57,-21.22 -51.8,-31.86" /></g></g><path
    id="path94"
    style="fill:#3a58b0;fill-opacity:1;fill-rule:evenodd;stroke:none"
    d="m 3816.34,881.031 c 0,0 40.98,361.429 272.64,359.559 0,0 118.48,-11.96 195.06,-92.29 0,0 84.89,-68.91 155.32,-14.29 91.42,70.9 246.51,86.59 321.33,-31.02 82.93,-130.342 243.18,140.17 351.7,-228.279 l -1296.05,6.32"/><g
    id="g96"><g
           clip-path="url(#clipPath102)"
           id="g98"><g
             clip-path="url(#clipPath108)"
             id="g104"><path
               id="path110"
               style="fill:#3748a4;fill-opacity:1;fill-rule:evenodd;stroke:none"
               d="m 4809.3,959.961 1.44,-1.129 1.42,-1.172 1.38,-1.18 1.38,-1.218 1.36,-1.223 1.34,-1.25 1.31,-1.277 1.31,-1.27 0.86,-0.883 0.41,-0.429 1.25,-1.328 1.24,-1.34 1.22,-1.352 1.21,-1.351 1.21,-1.348 2.36,-2.731 2.34,-2.73 4.49,-5.238 0.14,-0.172 2.26,-2.699 1.14,-1.309 1.12,-1.312 1.15,-1.309 1.13,-1.281 1.14,-1.258 1.16,-1.262 6.22,-6.738 6.45,-6.992 3.3,-3.559 3.33,-3.609 3.41,-3.621 2.31,-2.461 1.1,-1.2 3.45,-3.679 3.49,-3.692 3.53,-3.687 1.77,-1.84 1.78,-1.832 1.81,-1.84 1.78,-1.82 1.83,-1.82 1.82,-1.801 1.81,-1.809 1.84,-1.789 1.84,-1.781 1.85,-1.758 1.85,-1.762 1.85,-1.738 1.47,-1.352 0.4,-0.371 1.85,-1.738 1.87,-1.711 1.85,-1.691 1.88,-1.668 1.87,-1.649 1.88,-1.64 1.88,-1.602 1.9,-1.601 1.88,-1.547 0.1,-0.082 1.78,-1.489 1.88,-1.543 1.88,-1.519 1.89,-1.5 1.89,-1.438 1.88,-1.429 1.9,-1.391 1.19,-0.851 0.65,-0.598 1.78,-1.524 1.78,-1.476 1.79,-1.461 1.8,-1.402 1.82,-1.36 1.81,-1.34 0.79,-0.558 1.05,-0.75 0.9,-0.649 0.91,-0.64 0.92,-0.621 0.92,-0.61 0.92,-0.609 0.91,-0.582 0.93,-0.578 0.93,-0.571 0.93,-0.55 0.95,-0.539 1.61,-4.032 -4.08,-1.461 -1.06,0.352 -1.08,0.391 -1.09,0.367 -1.06,0.402 -1.09,0.399 -1.1,0.41 -1.08,0.422 -1.08,0.429 -1.1,0.43 -1.09,0.449 -1.25,0.512 -0.93,0.398 -2.17,1 -2.18,1.02 -2.19,1.058 -2.18,1.071 -2.2,1.133 -2.21,1.14 -0.82,0.438 -1.29,0.851 -2.07,1.399 -2.05,1.429 -2.05,1.45 -2.04,1.472 -2.04,1.508 -2.04,1.531 -1.93,1.481 -0.1,0.09 -2,1.597 -2,1.633 -1.99,1.641 -1.98,1.679 -1.97,1.688 -1.96,1.711 -1.96,1.719 -1.94,1.761 -1.95,1.75 -0.43,0.379 -1.48,1.403 -1.91,1.796 -1.91,1.821 -1.88,1.82 -1.88,1.832 -1.87,1.84 -1.86,1.848 -1.85,1.871 -1.85,1.851 -1.83,1.879 -1.81,1.879 -1.81,1.883 -1.81,1.867 -3.56,3.762 -3.54,3.758 -3.46,3.73 -1.12,1.223 -2.3,2.527 -3.34,3.723 -3.31,3.679 -3.23,3.649 -6.33,7.121 -6.11,6.84 -1.18,1.347 -1.2,1.364 -1.16,1.367 -1.17,1.371 -1.15,1.391 -1.16,1.39 -2.25,2.778 -0.14,0.16 -4.3,5.41 -2.2,2.781 -2.22,2.731 -1.1,1.339 -1.11,1.321 -1.12,1.328 -1.11,1.301 -1.15,1.269 -0.36,0.422 -0.74,0.879 -1.13,1.262 -1.13,1.238 -1.15,1.23 -1.15,1.2 -1.16,1.191 -1.18,1.141 -1.19,1.129 -1.23,1.089 -0.97,0.852 0.12,0.727 0.17,1.523 -0.01,1.379 2.57,3.34 1.37,0.32 1.53,0.461 0.69,0.238 1.14,-0.859" /><path
    id="path112"
    style="fill:#3748a4;fill-opacity:1;fill-rule:evenodd;stroke:none"
    d="m 4271.46,1213.47 -0.83,-6.13 -10.55,-12.46 -3.2,-3.73 -9.64,-11.4 -4.31,-4.58 -14.5,-15.44 -14.51,-15.45 -7.23,-7.75 -7.23,-7.75 -7.21,-7.77 -7.21,-7.78 -2.54,-2.75 -4.68,-5.01 -7.23,-7.75 -7.2,-7.77 -7.2,-7.78 -7.18,-7.79 -4.84,-5.31 -2.33,-2.49 -7.21,-7.76 -7.19,-7.8 -7.16,-7.81 -7.14,-7.83 -0.35,-0.38 -3.3,-3.45 -3.65,-3.84 -3.63,-3.84 -3.66,-3.85 -3.62,-3.86 -0.49,-0.5 -3.21,-3.29 -3.69,-3.8 -3.69,-3.81 -3.68,-3.82 -3.67,-3.831 -2.6,-2.711 -1.08,-1.097 -3.72,-3.789 -3.69,-3.801 -3.69,-3.801 -3.68,-3.828 -2.74,-2.863 -0.96,-0.949 -3.75,-3.77 -3.74,-3.789 -3.72,-3.789 -0.52,-0.551 -6.68,-0.25 -4.2,3.609 -0.71,6.649 0.46,0.613 3.27,4.258 3.26,4.25 3.26,4.23 0.85,1.102 2.5,3.078 3.36,4.149 3.39,4.16 3.38,4.141 3.38,4.14 0.98,1.18 2.47,2.9 3.46,4.08 3.46,4.05 3.49,4.05 3.49,4.06 3.02,3.49 0.47,0.54 3.59,3.95 3.58,3.96 3.59,3.96 3.59,3.93 3.24,3.56 0.36,0.37 7.42,7.65 7.44,7.64 7.46,7.62 7.48,7.58 2.41,2.44 5.12,5.08 7.58,7.49 7.57,7.45 7.6,7.44 7.61,7.43 4.92,4.8 2.7,2.59 7.66,7.37 7.67,7.35 7.65,7.33 7.67,7.34 15.33,14.67 15.29,14.66 4.54,4.36 11.3,9.76 3.69,3.23 12.29,10.7 6.14,0.91"/><path
    id="path114"
    style="fill:#3748a4;fill-opacity:1;fill-rule:evenodd;stroke:none"
    d="m 4050.5,967.301 4.1,-0.809 2.45,-0.504 2.82,-0.429 2.83,-2.227 4.72,-3.723 4.53,-3.578 0.17,-0.14 4.55,-3.86 4.53,-3.871 4.52,-3.879 2.41,-2.07 2.06,-1.84 4.42,-3.961 4.4,-3.969 4.39,-3.98 4.37,-3.992 4.35,-4.008 4.34,-4.012 2.84,-2.64 1.46,-1.43 4.22,-4.137 4.21,-4.172 4.2,-4.179 4.19,-4.192 0.52,-0.539 3.56,-3.769 4.06,-4.321 1.96,-2.109 2.05,-2.301 3.92,-4.488 1.91,-2.192 1.9,-2.421 3.69,-4.758 3,-3.84 0.67,-0.91 3.62,-4.84 3.64,-4.84 2.31,-3.07 1.32,-1.781 3.63,-4.86 3.69,-4.851 3.69,-4.868 0.21,-5.101 -5.07,0.609 -4.56,4.043 -4.56,3.988 -4.6,3.899 -1.69,1.422 -2.92,2.48 -4.61,3.84 -4.64,3.777 -0.89,0.711 -3.71,3.11 -4.58,3.801 -2.38,1.929 -2.12,1.942 -4.37,3.968 -2.27,2.032 -2.05,1.949 -4.27,4.039 -3.73,3.512 -0.53,0.519 -4.2,4.09 -4.19,4.09 -4.22,4.051 -4.22,4.058 -1.46,1.391 -2.71,2.711 -4.15,4.121 -4.16,4.117 -4.18,4.102 -4.21,4.089 -4.21,4.079 -4.22,4.082 -1.98,1.879 -2.25,2.222 -4.2,4.137 -4.23,4.109 -4.25,4.121 -0.15,0.161 -4,4.089 -4.18,4.25 -2.52,2.551 -0.75,2.731 -0.78,2.379 -1.29,3.96 -0.1,0.239 -0.23,3.91 3.89,0.25 0.27,-0.078"/><path
    id="path116"
    style="fill:#3748a4;fill-opacity:1;fill-rule:evenodd;stroke:none"
    d="m 4450.92,1174.15 -4.93,-7.28 -4.91,-7.31 -5.12,-7.7 -4.63,-6.94 -7.53,-11.34 -2.24,-3.29 -7.49,-11.09 -2.43,-3.4 -10.2,-14.3 -6.98,-9.8 -3.24,-4.47 -10.3,-14.21 -5.17,-7.1 -5.17,-7.09 -0.69,-0.92 -4.52,-6.13 -5.22,-7.06 -5.25,-7.04 -5.25,-7.03 -5.26,-7.02 -5.28,-7.02 -5.3,-7 -5.31,-6.99 -3.29,-4.288 -2.09,-2.641 -5.45,-6.882 -5.47,-6.868 -5.52,-6.839 -0.34,-0.442 -5.24,-6.351 -5.32,-6.36 -0.31,-0.367 -5.78,-6.633 -0.48,-0.551 -8.02,-3.839 -3.89,-0.399 -0.4,3.891 2.11,8.59 0.45,0.578 5.21,7.043 0.29,0.398 5.01,6.531 4.95,6.5 0.35,0.43 5.34,6.918 5.33,6.922 5.28,6.939 2.03,2.68 3.32,4.25 5.35,6.88 5.35,6.93 5.34,6.93 5.31,6.93 5.3,6.97 5.3,6.97 5.28,6.97 4.59,6.08 0.69,0.9 5.3,6.99 5.29,6.98 10.58,13.99 3.31,4.41 7.31,9.54 10.64,13.95 2.55,3.34 8.38,10.44 2.49,3.1 8.64,10.53 5.31,6.45 5.87,7.14 5.6,6.81 5.58,6.81 4.6,0.96 0.39,-4.68"/><path
    id="path118"
    style="fill:#3748a4;fill-opacity:1;fill-rule:evenodd;stroke:none"
    d="m 4407.82,959.18 1.42,-0.821 1.39,-0.839 1.4,-0.86 1.37,-0.879 1.36,-0.902 1.35,-0.938 1.33,-0.961 1.32,-0.968 1.31,-0.981 1.29,-1.011 0.37,-0.29 0.89,-0.761 1.24,-1.09 1.22,-1.09 1.21,-1.098 1.19,-1.152 1.18,-1.129 1.16,-1.16 1.16,-1.16 1.15,-1.188 1.14,-1.203 1.12,-1.199 1.12,-1.211 1.09,-1.23 1.09,-1.227 0.85,-0.98 0.24,-0.282 1.04,-1.281 1.04,-1.277 1.01,-1.293 1.03,-1.309 1.01,-1.281 0.99,-1.309 1,-1.32 0.98,-1.328 1.95,-2.652 1.91,-2.649 1.88,-2.66 1.87,-2.672 1.84,-2.668 1.81,-2.68 1.81,-2.64 3.54,-5.262 3.48,-5.18 1.67,-2.578 1.65,-2.551 1.65,-2.511 1.64,-2.457 1.75,-2.59 1.77,-2.582 1.52,-2.211 0.26,-0.367 1.75,-2.602 1.78,-2.601 1.8,-2.579 1.79,-2.589 1.83,-2.559 1.85,-2.57 1.27,-1.77 0.55,-0.801 1.84,-2.582 1.83,-2.57 1.86,-2.547 1.88,-2.551 1.88,-2.543 1.9,-2.519 1.92,-2.52 1.93,-2.488 1.96,-2.492 1.96,-2.481 1.97,-2.437 0.51,-0.641 1.37,-1.91 1.85,-2.558 1.89,-2.543 1.9,-2.5 1.91,-2.508 1.95,-2.461 0.75,-0.942 1.21,-1.519 1.95,-2.438 1.98,-2.441 2,-2.391 2.02,-2.371 0.21,-3.027 -3.02,0.168 -2.42,2 -2.42,2.012 -2.43,2.031 -2.42,2.027 -1.5,1.262 -0.92,0.801 -2.41,2.09 -2.41,2.089 -2.41,2.11 -2.42,2.109 -2.41,2.129 -1.8,1.57 -0.58,0.602 -2.26,2.269 -2.25,2.321 -2.23,2.301 -2.24,2.328 -2.23,2.332 -2.21,2.359 -2.21,2.348 -2.2,2.383 -2.19,2.378 -2.17,2.391 -2.17,2.41 -0.66,0.739 -1.47,1.691 -2.09,2.461 -2.1,2.469 -2.07,2.48 -2.05,2.469 -2.06,2.512 -2.02,2.488 -0.3,0.359 -1.69,2.18 -1.97,2.551 -1.96,2.55 -1.85,2.461 -1.85,2.489 -1.85,2.511 -1.85,2.539 v 0 l -3.57,5.168 -3.58,5.192 -1.79,2.601 -1.8,2.59 -1.82,2.578 -1.82,2.543 -1.83,2.539 -1.85,2.508 -1.87,2.512 -0.93,1.211 -0.95,1.207 -0.95,1.23 -0.93,1.2 -0.96,1.191 -0.96,1.172 -0.97,1.168 -0.96,1.152 -0.23,0.258 -0.73,0.91 -0.95,1.149 -0.95,1.14 -0.97,1.121 -0.98,1.11 -0.96,1.109 -0.99,1.082 -0.99,1.051 -0.98,1.058 -1.01,1.04 -1,1.019 -1.02,0.992 -1.02,0.989 -1.03,0.941 -0.74,0.687 -0.28,0.274 -1.01,0.969 -1.03,0.941 -1.02,0.918 -1.05,0.898 -1.04,0.903 -1.06,0.859 -1.06,0.852 -1.08,0.808 -1.09,0.801 -1.09,0.777 -0.22,0.141 1.78,5.16 2.89,4.731 3.86,3.89 0.25,-0.14"/><path
    id="path120"
    style="fill:#3748a4;fill-opacity:1;fill-rule:evenodd;stroke:none"
    d="m 4761.6,1205.76 -3.81,-5.47 -3.82,-5.45 -3.82,-5.45 -3.85,-5.43 -3.85,-5.42 -3.86,-5.42 -3.87,-5.41 -0.19,-0.28 -3.71,-5.08 -3.92,-5.38 -3.92,-5.35 -3.94,-5.35 -3.93,-5.33 -3.95,-5.32 -1.28,-1.71 -2.71,-3.58 -4.05,-5.26 -4.02,-5.25 -4.05,-5.25 -4.06,-5.23 -4.06,-5.23 -0.53,-0.7 -3.63,-4.44 -4.18,-5.13 -4.21,-5.1 -4.19,-5.11 -4.21,-5.1 -4.21,-5.09 -1.56,-1.88 -2.71,-3.18 -8.58,-10.07 -8.59,-10.04 -8.62,-10.05 -1.48,-1.68 -0.83,-0.95 -2.33,-2.65 -2.34,-2.63 -2.37,-2.61 -2.35,-2.62 -2.36,-2.6 -4.74,-5.17 -4.75,-5.18 -4.73,-5.17 -4.71,-5.17 -2.34,-2.591 -2.32,-2.578 -2.32,-2.59 -2.31,-2.621 -2.28,-2.621 -2.27,-2.609 -2.24,-2.641 -1.97,-2.328 -0.27,-0.301 -2.3,-2.59 -2.24,-2.609 -2.25,-2.609 -2.2,-2.653 -2.19,-2.648 -1.08,-1.34 -1.07,-1.34 -1.07,-1.359 -1.05,-1.352 -0.25,-0.32 -1.45,-0.551 -1.84,-0.809 -1.78,-0.851 -1.71,-0.938 -1.63,-0.992 -1.57,-1.039 -3.85,-0.75 -0.73,3.828 0.4,1.891 0.35,1.91 0.3,1.973 0.26,2.019 0.2,2.078 0.11,1.61 0.25,0.351 1.01,1.489 1.03,1.48 1.04,1.473 1.05,1.5 2.1,2.91 2.12,2.898 2.17,2.879 2.17,2.852 2.19,2.847 0.27,0.321 2.02,2.422 2.3,2.75 2.33,2.699 2.32,2.69 2.36,2.69 2.34,2.66 2.36,2.65 2.38,2.64 4.71,5.25 4.72,5.21 4.73,5.2 4.67,5.16 2.32,2.58 2.32,2.59 2.29,2.58 2.27,2.59 2.27,2.57 0.82,0.96 1.44,1.64 8.65,9.95 8.62,9.96 8.61,10 2.71,3.16 1.59,1.82 4.34,4.98 4.31,4.96 4.32,4.97 4.31,4.98 4.28,4.99 3.71,4.32 0.6,0.67 4.37,4.91 4.37,4.92 4.36,4.95 4.35,4.95 4.33,4.97 2.95,3.38 1.39,1.59 4.37,4.94 4.34,4.96 4.35,4.98 4.31,5 4.29,5.01 4.07,4.78 0.22,0.25 4.3,5.05 4.28,5.04 4.25,5.07 4.25,5.09 4.22,5.12 4.19,5.14 4.18,5.18 5.12,0.89 0.56,-5.17"/><path
    id="path122"
    style="fill:#3748a4;fill-opacity:1;fill-rule:evenodd;stroke:none"
    d="m 3961.67,979.461 3.87,-0.012 3.87,-0.027 3.87,-0.051 3.88,-0.039 3.88,-0.051 7.74,-0.14 7.74,-0.172 7.76,-0.199 7.74,-0.231 5.51,-0.187 2.22,-0.082 7.73,-0.278 7.72,-0.332 7.71,-0.328 7.7,-0.352 7.71,-0.371 7.68,-0.379 15.34,-0.769 30.5,-1.582 15.16,-0.77 7.55,-0.359 7.54,-0.371 7.51,-0.328 7.48,-0.321 6.45,-0.261 1.02,-0.047 7.44,-0.301 7.43,-0.289 7.39,-0.25 7.37,-0.223 7.34,-0.199 7.32,-0.16 3.65,-0.059 3.63,-0.062 11.03,-0.149 11.32,-0.128 11.56,-0.11 11.83,-0.082 12.08,-0.078 12.34,-0.082 12.56,-0.039 3.75,-0.02 9.04,-0.062 13.01,-0.09 13.2,-0.078 13.41,-0.063 13.6,-0.058 27.76,-0.102 28.41,-0.078 29.01,-0.031 29.54,-0.027 60.39,-0.071 30.72,-0.043 30.99,-0.047 18.97,-0.05 12.21,-0.059 31.29,-0.203 15.68,-0.109 15.68,-0.122 15.69,-0.117 15.65,-0.14 15.66,-0.161 15.62,-0.148 15.58,-0.184 3.34,-0.039 12.22,-0.187 15.48,-0.274 15.42,-0.269 15.37,-0.277 15.27,-0.313 15.19,-0.32 15.1,-0.34 14.99,-0.348 6.65,-0.16 8.22,-0.351 14.76,-0.629 14.63,-0.649 14.49,-0.652 4.29,-0.211 10.06,-0.539 14.17,-0.781 14.02,-0.778 13.86,-0.801 13.67,-0.8 8.89,-0.539 4.59,-0.282 6.67,-0.429 6.62,-0.43 6.56,-0.41 6.52,-0.43 6.45,-0.43 6.42,-0.441 6.33,-0.437 6.29,-0.43 6.25,-0.453 6.18,-0.449 6.11,-0.438 6.07,-0.453 5.98,-0.449 5.93,-0.461 2.17,-2.278 -2.41,-2.031 -5.93,0.219 -6,0.18 -6.08,0.191 -6.12,0.16 -6.17,0.16 -6.24,0.141 -6.3,0.129 -6.36,0.109 -6.39,0.11 -6.48,0.082 -6.51,0.078 -6.56,0.07 -6.63,0.043 -6.66,0.047 -4.59,0.019 -8.9,0.043 -13.66,0.028 -13.86,-0.008 -14.02,-0.063 -14.17,-0.128 -10.06,-0.11 h -4.29 l -14.48,-0.07 -14.61,-0.121 -14.75,-0.149 -8.22,-0.109 -6.63,0.051 -14.98,0.047 -15.08,0.05 h -15.18 -15.25 l -15.34,-0.039 -15.41,-0.031 -15.47,-0.059 -12.2,-0.05 -3.34,-0.02 -15.55,-0.019 -15.61,-0.039 -15.64,-0.051 -15.65,-0.082 -15.67,-0.078 -15.68,-0.082 -15.66,-0.079 -31.28,-0.218 -12.2,-0.102 -18.96,-0.078 -30.98,-0.16 -30.71,-0.172 -60.4,-0.32 -29.54,-0.16 -29.02,-0.149 -28.43,-0.121 -27.78,-0.098 -13.62,-0.031 -13.43,-0.019 -13.23,-0.012 h -13.02 -9.05 l -3.76,0.031 -12.58,0.07 -12.35,0.09 -12.12,0.11 -11.88,0.129 -11.6,0.128 -11.36,0.153 -11.08,0.168 -3.69,0.062 -3.7,0.078 -7.42,0.172 -7.45,0.207 -7.46,0.262 -7.47,0.27 -7.5,0.289 -7.51,0.32 -1.02,0.051 -6.5,0.332 -7.54,0.379 -7.56,0.418 -7.57,0.41 -7.58,0.429 -15.19,0.891 -15.23,0.922 -15.25,0.91 -15.31,0.91 -7.64,0.43 -7.65,0.43 -7.67,0.41 -7.66,0.39 -7.67,0.379 -7.65,0.352 -2.2,0.098 -5.46,0.242 -7.66,0.328 -7.66,0.301 -7.65,0.257 -7.66,0.243 -3.82,0.101 -3.83,0.09 -3.82,0.078 -3.82,0.078 -3.82,0.063 -3.81,0.07 -3.82,0.031 -3.82,0.039 -3.81,0.008 -3.82,0.02 h -3.8 l -3.81,-0.02 -3.79,-0.027 -3.81,-0.043 -3.8,-0.039 -3.79,-0.07 -3.79,-0.079 -3.79,-0.089 -3.8,-0.11 -3.79,-0.121 -3.77,-0.141 -3.78,-0.16 -3.78,-0.16 -3.75,-0.172 -3.78,-0.199 -3.76,-0.219 -3.76,-0.218 -3.75,-0.262 -3.75,-0.25 -3.75,-0.289 -3.75,-0.301 -3.73,-0.32 -3.73,-0.34 -3.74,-0.352 -3.73,-0.367 -3.72,-0.379 -3.72,-0.422 -3.7,-0.429 -3.71,-0.442 -3.69,-0.48 -3.71,-0.5 -3.67,-0.508 -3.69,-0.531 -3.69,-0.551 -3.66,-0.578 -3.67,-0.59 -3.66,-0.621 -3.66,-0.641 -3.65,-0.668 -3.65,-0.691 -0.72,-0.141 -2.93,-0.488 -3.65,-0.609 -3.65,-0.641 -3.65,-0.691 -3.64,-0.7 -3.63,-0.718 -3.63,-0.762 -3.62,-0.77 -3.62,-0.808 -3.62,-0.832 -3.61,-0.871 -3.59,-0.887 -3.6,-0.91 -3.58,-0.942 -3.58,-0.988 -0.58,-0.152 -4.28,3.101 -1.93,6.078 1.75,5.02 0.58,0.203 3.61,1.25 3.64,1.207 3.64,1.199 3.63,1.172 3.65,1.141 3.67,1.121 3.67,1.07 3.67,1.067 3.68,1.043 3.69,1.019 3.7,0.988 3.71,0.961 3.72,0.942 3.71,0.918 2.98,0.711 0.75,0.16 3.76,0.75 3.75,0.73 3.78,0.711 3.76,0.699 3.78,0.649 3.77,0.64 3.79,0.61 3.79,0.601 3.79,0.571 3.79,0.547 3.8,0.531 3.81,0.519 3.8,0.473 3.82,0.477 3.81,0.453 3.82,0.429 3.83,0.399 3.82,0.398 3.84,0.364 3.83,0.359 3.84,0.34 3.83,0.308 3.85,0.301 3.85,0.281 3.84,0.258 3.84,0.262 3.87,0.238 3.84,0.211 3.86,0.199 3.86,0.18 3.86,0.172 3.86,0.16 3.87,0.149 3.86,0.121 3.86,0.109 3.88,0.109 3.87,0.09 3.87,0.063 3.86,0.07 3.87,0.059 3.88,0.031 3.87,0.027 3.88,0.012 h 3.88 3.88"/></g></g></g><path
    id="path124"
    style="fill:#fbc8de;fill-opacity:1;fill-rule:evenodd;stroke:none"
    d="m 2542.82,2558.71 1397.06,-72.14 -85.47,-1655.269 -1397.06,72.14 85.47,1655.269"/><path
    id="path126"
    style="fill:#5876c4;fill-opacity:1;fill-rule:evenodd;stroke:none"
    d="m 2640.66,2446.4 1163.71,-60.09 -63.89,-1237.34 -1163.71,60.08 63.89,1237.35"/><g
    id="g128"><g
           clip-path="url(#clipPath134)"
           id="g130"><path
             id="path136"
             style="fill:#333697;fill-opacity:1;fill-rule:evenodd;stroke:none"
             d="m 2524.71,1398.4 c 0,0 285.73,483.84 364.24,471.34 96.04,-15.28 221.24,-422.95 221.24,-422.95 0,0 130.47,242.08 217.41,231.68 110.35,-13.19 477.55,-597.3 477.55,-597.3 l -1312.04,87.16 31.6,230.07" /></g></g><path
    id="path138"
    style="fill:#333697;fill-opacity:1;fill-rule:evenodd;stroke:none"
    d="m 3424.07,2208.75 c 87.76,-12.77 148.56,-94.27 135.78,-182.03 -12.77,-87.76 -94.27,-148.55 -182.04,-135.78 -87.75,12.77 -148.54,94.27 -135.78,182.03 12.77,87.76 94.28,148.56 182.04,135.78"/><path
    id="path140"
    style="fill:#fbc8de;fill-opacity:1;fill-rule:evenodd;stroke:none"
    d="m 1785.32,2878.09 1291.49,-537.63 -637,-1530.19 -1291.48,537.63 636.99,1530.19"/><path
    id="path142"
    style="fill:#5876c4;fill-opacity:1;fill-rule:evenodd;stroke:none"
    d="M 1839.71,2739.42 2915.48,2291.58 2439.31,1147.75 1363.53,1595.58 1839.71,2739.42"/><g
    id="g144"><g
           clip-path="url(#clipPath150)"
           id="g146"><path
             id="path152"
             style="fill:#333697;fill-opacity:1;fill-rule:evenodd;stroke:none"
             d="m 1378.16,1791.41 c 0,0 431.76,359.61 501.52,321.43 85.31,-46.67 66.16,-472.7 66.16,-472.7 0,0 204.26,184.13 282.65,145.1 99.49,-49.53 248.93,-723.08 248.93,-723.08 l -1206.36,523.19 107.1,206.06" /></g></g><path
    id="path154"
    style="fill:#333697;fill-opacity:1;fill-rule:evenodd;stroke:none"
    d="m 2497.62,2252.23 c 78.36,-41.54 108.21,-138.73 66.68,-217.09 -41.54,-78.36 -138.73,-108.21 -217.09,-66.68 -78.36,41.53 -108.22,138.73 -66.68,217.09 41.53,78.36 138.73,108.21 217.09,66.68"/><path
    id="path156"
    style="fill:#5876c4;fill-opacity:1;fill-rule:nonzero;stroke:none"
    d="m 3244.26,3108.27 c -22.1,66.65 -67.87,120.34 -125.88,148.11 0.16,9.31 0.02,18.69 -0.56,28.16 -10.68,172 -143.48,301.7 -296.6,289.7 -87.47,-6.85 -162.61,-58.5 -209.01,-133.57 -37.17,99.57 -127.61,166.24 -228.83,158.31 -127.12,-9.95 -222.99,-133.77 -214.12,-276.56 0.16,-2.72 0.43,-5.4 0.67,-8.11 -26.23,24.16 -59.78,38.66 -96.34,38.66 -84.01,0 -152.11,-76.49 -152.11,-170.84 0,-23.35 4.19,-45.6 11.74,-65.88 -194.6,43.84 -348.57,-119.58 -321.1,-260.96 h 1957.3 c 0,0 -26.71,285.93 -325.16,252.98"/><g
    id="g158"><g
           clip-path="url(#clipPath164)"
           id="g160"><path
             id="path166"
             style="fill:#333697;fill-opacity:1;fill-rule:evenodd;stroke:none"
             d="m 2415.59,3062.5 -156.4,5.52 247.57,296.06 250.82,-309.85 -150.28,4 v -302.77 h -191.71 v 307.04" /></g></g><path
  /></g></g></svg>
